solid Created by Gmsh
facet normal -0.0961394 0 -0.995368
  outer loop
    vertex -2.44929e-16 0.333333 1
    vertex -2.44929e-16 0.666667 1
    vertex 0.191388 0.691734 0.981514
  endloop
endfacet
facet normal 0.095221 0 -0.995456
  outer loop
    vertex -0.189577 0.691539 0.981866
    vertex -2.44929e-16 0.666667 1
    vertex -2.44929e-16 0.333333 1
  endloop
endfacet
facet normal 0.095966 0 -0.995385
  outer loop
    vertex -2.44929e-16 -0.333333 1
    vertex -2.44929e-16 -0.666667 1
    vertex -0.191046 -0.691825 0.981581
  endloop
endfacet
facet normal -0.0951591 0 -0.995462
  outer loop
    vertex 0.189455 -0.693042 0.981889
    vertex -2.44929e-16 -0.666667 1
    vertex -2.44929e-16 -0.333333 1
  endloop
endfacet
facet normal -0.953782 0.0138108 -0.300181
  outer loop
    vertex 0.975636 0.315454 0.219396
    vertex 0.984301 -0.0185384 0.176497
    vertex 0.906901 -0.0420428 0.421344
  endloop
endfacet
facet normal -0.920007 0.0199233 0.391395
  outer loop
    vertex 0.909358 0.288917 -0.416015
    vertex 0.871588 0.00294444 -0.490239
    vertex 0.95633 0.0273749 -0.29229
  endloop
endfacet
facet normal -0.230058 0.00634295 0.973156
  outer loop
    vertex 0.15297 0.291264 -0.988231
    vertex 0.127802 -0.0740361 -0.9918
    vertex 0.325214 0.00416868 -0.94564
  endloop
endfacet
facet normal 0.219647 -0.0116902 0.975509
  outer loop
    vertex -0.125639 0.0597724 -0.992076
    vertex -0.0886489 0.422084 -0.996063
    vertex -0.342171 0.36717 -0.939638
  endloop
endfacet
facet normal 0.725716 0.00630787 0.687966
  outer loop
    vertex -0.779381 0.291419 -0.626551
    vertex -0.794663 -0.0771117 -0.607051
    vertex -0.652153 -1.19467e-05 -0.758087
  endloop
endfacet
facet normal 0.95358 -0.0122246 0.300892
  outer loop
    vertex -0.923337 0.0663478 -0.383992
    vertex -0.907147 0.422875 -0.420813
    vertex -0.983482 0.370911 -0.181008
  endloop
endfacet
facet normal 0.999503 0.0233553 -0.0211872
  outer loop
    vertex -0.997703 0.288211 0.0677348
    vertex -0.989071 -0.00891601 0.147441
    vertex -0.995256 0.03378 -0.0972887
  endloop
endfacet
facet normal 0.962222 -0.0247535 -0.271139
  outer loop
    vertex -0.968393 -0.322257 0.249429
    vertex -0.989071 -0.00891601 0.147441
    vertex -0.919382 0.00628551 0.393366
  endloop
endfacet
facet normal 0.860237 -0.020593 0.509479
  outer loop
    vertex -0.881251 -0.369007 -0.472648
    vertex -0.794663 -0.0771117 -0.607051
    vertex -0.923337 0.0663478 -0.383992
  endloop
endfacet
facet normal -0.0121255 -0.0209026 0.999708
  outer loop
    vertex -0.025039 -0.362572 -0.999686
    vertex 0.127802 -0.0740361 -0.9918
    vertex -0.125639 0.0597724 -0.992076
  endloop
endfacet
facet normal -0.807655 -0.00957053 0.589577
  outer loop
    vertex 0.85715 -0.308107 -0.515066
    vertex 0.871588 0.00294444 -0.490239
    vertex 0.733518 -0.0149517 -0.67967
  endloop
endfacet
facet normal -0.997983 -0.017736 -0.0609536
  outer loop
    vertex 0.994668 -0.349714 0.103131
    vertex 0.984301 -0.0185384 0.176497
    vertex 0.998481 -0.0204955 -0.0550969
  endloop
endfacet
facet normal -0.842797 0.0116069 -0.538106
  outer loop
    vertex 0.917495 -0.366749 0.397747
    vertex 0.750257 -0.298775 0.661146
    vertex 0.906901 -0.0420428 0.421344
  endloop
endfacet
facet normal 0.426742 -0.0378727 -0.90358
  outer loop
    vertex -0.540292 0.445326 0.841478
    vertex -0.309361 0.435708 0.950945
    vertex -0.423993 0.224345 0.905666
  endloop
endfacet
facet normal 0.429069 0.0382075 -0.902463
  outer loop
    vertex -0.425238 -0.229182 0.905081
    vertex -0.311787 -0.438663 0.950152
    vertex -0.54508 -0.45876 0.838384
  endloop
endfacet
facet normal -0.43031 -0.0384418 -0.901862
  outer loop
    vertex 0.426185 0.229419 0.904636
    vertex 0.31293 0.438164 0.949776
    vertex 0.546399 0.458225 0.837525
  endloop
endfacet
facet normal -0.425102 0.0372877 -0.904377
  outer loop
    vertex 0.539729 -0.459576 0.841839
    vertex 0.309255 -0.440023 0.950979
    vertex 0.423521 -0.231006 0.905886
  endloop
endfacet
facet normal 0.445122 -0.0538358 -0.89385
  outer loop
    vertex -0.298402 -8.88178e-16 0.95444
    vertex -0.425238 -0.229182 0.905081
    vertex -0.581886 -4.44089e-16 0.81327
  endloop
endfacet
facet normal 0.445097 0.0548494 -0.893801
  outer loop
    vertex -0.581886 -4.44089e-16 0.81327
    vertex -0.423993 0.224345 0.905666
    vertex -0.298402 -8.88178e-16 0.95444
  endloop
endfacet
facet normal -0.453698 -0.0473503 -0.889897
  outer loop
    vertex 0.585427 0.00610222 0.810725
    vertex 0.423521 -0.231006 0.905886
    vertex 0.314175 -0.000418796 0.949365
  endloop
endfacet
facet normal -0.455498 0.0489964 -0.888887
  outer loop
    vertex 0.314175 -0.000418796 0.949365
    vertex 0.426185 0.229419 0.904636
    vertex 0.585427 0.00610222 0.810725
  endloop
endfacet
facet normal -0.765489 -0.0380674 -0.642322
  outer loop
    vertex 0.712167 0.685334 0.70201
    vertex 0.642788 1 0.766044
    vertex 0.866025 1 0.5
  endloop
endfacet
facet normal -0.644436 0.0141868 -0.764527
  outer loop
    vertex 0.712167 0.685334 0.70201
    vertex 0.743674 0.312967 0.668542
    vertex 0.546399 0.458225 0.837525
  endloop
endfacet
facet normal 0.765677 -0.0309568 -0.64248
  outer loop
    vertex -0.866025 1 0.5
    vertex -0.642788 1 0.766044
    vertex -0.690074 0.708444 0.723739
  endloop
endfacet
facet normal 0.634742 0.0156279 -0.772566
  outer loop
    vertex -0.540292 0.445326 0.841478
    vertex -0.730587 0.331078 0.68282
    vertex -0.690074 0.708444 0.723739
  endloop
endfacet
facet normal 0.765509 0.0373993 -0.642338
  outer loop
    vertex -0.710623 -0.684467 0.703573
    vertex -0.642788 -1 0.766044
    vertex -0.866025 -1 0.5
  endloop
endfacet
facet normal 0.641315 -0.0121432 -0.767181
  outer loop
    vertex -0.710623 -0.684467 0.703573
    vertex -0.73795 -0.313361 0.674856
    vertex -0.54508 -0.45876 0.838384
  endloop
endfacet
facet normal -0.765677 0.0309762 -0.642479
  outer loop
    vertex 0.866025 -1 0.5
    vertex 0.642788 -1 0.766044
    vertex 0.690087 -0.708563 0.723726
  endloop
endfacet
facet normal -0.640914 -0.0230651 -0.767266
  outer loop
    vertex 0.539729 -0.459576 0.841839
    vertex 0.750257 -0.298775 0.661146
    vertex 0.690087 -0.708563 0.723726
  endloop
endfacet
facet normal -0.435168 0.0292118 -0.899875
  outer loop
    vertex 0.468962 0.712243 0.883218
    vertex 0.546399 0.458225 0.837525
    vertex 0.31293 0.438164 0.949776
  endloop
endfacet
facet normal 0.429111 0.0274966 -0.902833
  outer loop
    vertex -0.309361 0.435708 0.950945
    vertex -0.540292 0.445326 0.841478
    vertex -0.462487 0.713523 0.886626
  endloop
endfacet
facet normal 0.433918 -0.0291009 -0.900482
  outer loop
    vertex -0.468178 -0.712286 0.883634
    vertex -0.54508 -0.45876 0.838384
    vertex -0.311787 -0.438663 0.950152
  endloop
endfacet
facet normal -0.429758 -0.0280238 -0.902509
  outer loop
    vertex 0.309255 -0.440023 0.950979
    vertex 0.539729 -0.459576 0.841839
    vertex 0.461925 -0.718226 0.886919
  endloop
endfacet
facet normal 0.103298 0 -0.99465
  outer loop
    vertex -0.205491 0.206183 0.978659
    vertex -2.44929e-16 0.333333 1
    vertex -2.44929e-16 -1.33227e-15 1
  endloop
endfacet
facet normal 0.318948 0.0299545 -0.947299
  outer loop
    vertex -0.205491 0.206183 0.978659
    vertex -0.423993 0.224345 0.905666
    vertex -0.309361 0.435708 0.950945
  endloop
endfacet
facet normal 0.137942 -0.0569697 -0.988801
  outer loop
    vertex -0.309361 0.435708 0.950945
    vertex -2.44929e-16 0.333333 1
    vertex -0.205491 0.206183 0.978659
  endloop
endfacet
facet normal 0.103452 0 -0.994634
  outer loop
    vertex -2.44929e-16 -1.33227e-15 1
    vertex -2.44929e-16 -0.333333 1
    vertex -0.205795 -0.206594 0.978595
  endloop
endfacet
facet normal 0.320303 -0.030244 -0.946832
  outer loop
    vertex -0.311787 -0.438663 0.950152
    vertex -0.425238 -0.229182 0.905081
    vertex -0.205795 -0.206594 0.978595
  endloop
endfacet
facet normal 0.138501 0.0579175 -0.988667
  outer loop
    vertex -0.205795 -0.206594 0.978595
    vertex -2.44929e-16 -0.333333 1
    vertex -0.311787 -0.438663 0.950152
  endloop
endfacet
facet normal -0.105123 0 -0.994459
  outer loop
    vertex -2.44929e-16 -1.33227e-15 1
    vertex -2.44929e-16 0.333333 1
    vertex 0.209081 0.204029 0.977898
  endloop
endfacet
facet normal -0.322695 0.029499 -0.946043
  outer loop
    vertex 0.31293 0.438164 0.949776
    vertex 0.426185 0.229419 0.904636
    vertex 0.209081 0.204029 0.977898
  endloop
endfacet
facet normal -0.139632 -0.0568054 -0.988573
  outer loop
    vertex 0.209081 0.204029 0.977898
    vertex -2.44929e-16 0.333333 1
    vertex 0.31293 0.438164 0.949776
  endloop
endfacet
facet normal -0.103934 0 -0.994584
  outer loop
    vertex 0.206742 -0.204955 0.978395
    vertex -2.44929e-16 -0.333333 1
    vertex -2.44929e-16 -1.33227e-15 1
  endloop
endfacet
facet normal -0.320231 -0.0292152 -0.946889
  outer loop
    vertex 0.206742 -0.204955 0.978395
    vertex 0.423521 -0.231006 0.905886
    vertex 0.309255 -0.440023 0.950979
  endloop
endfacet
facet normal -0.137681 0.0552981 -0.988932
  outer loop
    vertex 0.309255 -0.440023 0.950979
    vertex -2.44929e-16 -0.333333 1
    vertex 0.206742 -0.204955 0.978395
  endloop
endfacet
facet normal -0.66348 -0.00451237 -0.748181
  outer loop
    vertex 0.576431 0.264229 0.817146
    vertex 0.743674 0.312967 0.668542
    vertex 0.585427 0.00610222 0.810725
  endloop
endfacet
facet normal -0.505321 0.0124138 -0.862842
  outer loop
    vertex 0.576431 0.264229 0.817146
    vertex 0.426185 0.229419 0.904636
    vertex 0.546399 0.458225 0.837525
  endloop
endfacet
facet normal -0.66023 -0.0233474 -0.750701
  outer loop
    vertex 0.546399 0.458225 0.837525
    vertex 0.743674 0.312967 0.668542
    vertex 0.576431 0.264229 0.817146
  endloop
endfacet
facet normal -0.503888 0.00392412 -0.86376
  outer loop
    vertex 0.585427 0.00610222 0.810725
    vertex 0.426185 0.229419 0.904636
    vertex 0.576431 0.264229 0.817146
  endloop
endfacet
facet normal -0.669746 0.00223423 -0.742587
  outer loop
    vertex 0.585427 0.00610222 0.810725
    vertex 0.750257 -0.298775 0.661146
    vertex 0.5813 -0.245814 0.813689
  endloop
endfacet
facet normal -0.505531 -0.0152897 -0.862673
  outer loop
    vertex 0.539729 -0.459576 0.841839
    vertex 0.423521 -0.231006 0.905886
    vertex 0.5813 -0.245814 0.813689
  endloop
endfacet
facet normal -0.664461 0.0308916 -0.746684
  outer loop
    vertex 0.5813 -0.245814 0.813689
    vertex 0.750257 -0.298775 0.661146
    vertex 0.539729 -0.459576 0.841839
  endloop
endfacet
facet normal -0.504652 -0.00189081 -0.863321
  outer loop
    vertex 0.5813 -0.245814 0.813689
    vertex 0.423521 -0.231006 0.905886
    vertex 0.585427 0.00610222 0.810725
  endloop
endfacet
facet normal 0.654574 -0.00387687 -0.755988
  outer loop
    vertex -0.581886 -4.44089e-16 0.81327
    vertex -0.730587 0.331078 0.68282
    vertex -0.573491 0.258856 0.819212
  endloop
endfacet
facet normal 0.502925 0.0136533 -0.864222
  outer loop
    vertex -0.540292 0.445326 0.841478
    vertex -0.423993 0.224345 0.905666
    vertex -0.573491 0.258856 0.819212
  endloop
endfacet
facet normal 0.64889 -0.0247217 -0.76048
  outer loop
    vertex -0.573491 0.258856 0.819212
    vertex -0.730587 0.331078 0.68282
    vertex -0.540292 0.445326 0.841478
  endloop
endfacet
facet normal 0.501232 0.00360614 -0.865306
  outer loop
    vertex -0.573491 0.258856 0.819212
    vertex -0.423993 0.224345 0.905666
    vertex -0.581886 -4.44089e-16 0.81327
  endloop
endfacet
facet normal 0.658973 0.00404536 -0.752156
  outer loop
    vertex -0.573239 -0.271071 0.819388
    vertex -0.73795 -0.313361 0.674856
    vertex -0.581886 -4.44089e-16 0.81327
  endloop
endfacet
facet normal 0.503556 -0.0118842 -0.863881
  outer loop
    vertex -0.573239 -0.271071 0.819388
    vertex -0.425238 -0.229182 0.905081
    vertex -0.54508 -0.45876 0.838384
  endloop
endfacet
facet normal 0.656191 0.0221096 -0.754271
  outer loop
    vertex -0.54508 -0.45876 0.838384
    vertex -0.73795 -0.313361 0.674856
    vertex -0.573239 -0.271071 0.819388
  endloop
endfacet
facet normal 0.501816 -0.00351408 -0.864967
  outer loop
    vertex -0.581886 -4.44089e-16 0.81327
    vertex -0.425238 -0.229182 0.905081
    vertex -0.573239 -0.271071 0.819388
  endloop
endfacet
facet normal -0.688739 -0.0167535 -0.724816
  outer loop
    vertex 0.782419 0.0401013 0.622752
    vertex 0.750257 -0.298775 0.661146
    vertex 0.585427 0.00610222 0.810725
  endloop
endfacet
facet normal -0.692225 0.0227557 -0.721323
  outer loop
    vertex 0.585427 0.00610222 0.810725
    vertex 0.743674 0.312967 0.668542
    vertex 0.782419 0.0401013 0.622752
  endloop
endfacet
facet normal -0.846775 0.02014 -0.531569
  outer loop
    vertex 0.906901 -0.0420428 0.421344
    vertex 0.750257 -0.298775 0.661146
    vertex 0.782419 0.0401013 0.622752
  endloop
endfacet
facet normal 0.683823 -0.0183745 -0.729417
  outer loop
    vertex -0.581886 -4.44089e-16 0.81327
    vertex -0.73795 -0.313361 0.674856
    vertex -0.774573 0.00568484 0.632485
  endloop
endfacet
facet normal 0.684404 0.020225 -0.728822
  outer loop
    vertex -0.774573 0.00568484 0.632485
    vertex -0.730587 0.331078 0.68282
    vertex -0.581886 -4.44089e-16 0.81327
  endloop
endfacet
facet normal -0.499361 -0.0505431 -0.864919
  outer loop
    vertex 0.468962 0.712243 0.883218
    vertex 0.34202 1 0.939693
    vertex 0.642788 1 0.766044
  endloop
endfacet
facet normal 0.49938 -0.0497728 -0.864952
  outer loop
    vertex -0.642788 1 0.766044
    vertex -0.34202 1 0.939693
    vertex -0.462487 0.713523 0.886626
  endloop
endfacet
facet normal 0.499364 0.0504403 -0.864923
  outer loop
    vertex -0.468178 -0.712286 0.883634
    vertex -0.34202 -1 0.939693
    vertex -0.642788 -1 0.766044
  endloop
endfacet
facet normal -0.499362 0.0505049 -0.86492
  outer loop
    vertex 0.642788 -1 0.766044
    vertex 0.34202 -1 0.939693
    vertex 0.461925 -0.718226 0.886919
  endloop
endfacet
facet normal -0.594863 0.0322875 -0.803178
  outer loop
    vertex 0.642788 1 0.766044
    vertex 0.712167 0.685334 0.70201
    vertex 0.468962 0.712243 0.883218
  endloop
endfacet
facet normal -0.599795 -0.0390852 -0.799199
  outer loop
    vertex 0.468962 0.712243 0.883218
    vertex 0.712167 0.685334 0.70201
    vertex 0.546399 0.458225 0.837525
  endloop
endfacet
facet normal 0.581494 0.0236882 -0.813205
  outer loop
    vertex -0.462487 0.713523 0.886626
    vertex -0.690074 0.708444 0.723739
    vertex -0.642788 1 0.766044
  endloop
endfacet
facet normal 0.582181 -0.0321287 -0.812424
  outer loop
    vertex -0.540292 0.445326 0.841478
    vertex -0.690074 0.708444 0.723739
    vertex -0.462487 0.713523 0.886626
  endloop
endfacet
facet normal 0.5936 -0.0315928 -0.80414
  outer loop
    vertex -0.642788 -1 0.766044
    vertex -0.710623 -0.684467 0.703573
    vertex -0.468178 -0.712286 0.883634
  endloop
endfacet
facet normal 0.598653 0.0387905 -0.800069
  outer loop
    vertex -0.468178 -0.712286 0.883634
    vertex -0.710623 -0.684467 0.703573
    vertex -0.54508 -0.45876 0.838384
  endloop
endfacet
facet normal -0.580922 -0.0238579 -0.813609
  outer loop
    vertex 0.461925 -0.718226 0.886919
    vertex 0.690087 -0.708563 0.723726
    vertex 0.642788 -1 0.766044
  endloop
endfacet
facet normal -0.582369 0.0336179 -0.812229
  outer loop
    vertex 0.539729 -0.459576 0.841839
    vertex 0.690087 -0.708563 0.723726
    vertex 0.461925 -0.718226 0.886919
  endloop
endfacet
facet normal -0.173442 -0.0486971 -0.983639
  outer loop
    vertex 0.191388 0.691734 0.981514
    vertex -2.44929e-16 1 1
    vertex 0.34202 1 0.939693
  endloop
endfacet
facet normal -0.0961394 0 -0.995368
  outer loop
    vertex -2.44929e-16 0.666667 1
    vertex -2.44929e-16 1 1
    vertex 0.191388 0.691734 0.981514
  endloop
endfacet
facet normal 0.173442 -0.0487683 -0.983636
  outer loop
    vertex -0.34202 1 0.939693
    vertex -2.44929e-16 1 1
    vertex -0.189577 0.691539 0.981866
  endloop
endfacet
facet normal 0.095221 0 -0.995456
  outer loop
    vertex -0.189577 0.691539 0.981866
    vertex -2.44929e-16 1 1
    vertex -2.44929e-16 0.666667 1
  endloop
endfacet
facet normal 0.095966 0 -0.995385
  outer loop
    vertex -2.44929e-16 -0.666667 1
    vertex -2.44929e-16 -1 1
    vertex -0.191046 -0.691825 0.981581
  endloop
endfacet
facet normal 0.173442 0.0487315 -0.983638
  outer loop
    vertex -0.191046 -0.691825 0.981581
    vertex -2.44929e-16 -1 1
    vertex -0.34202 -1 0.939693
  endloop
endfacet
facet normal -0.173439 0.049013 -0.983624
  outer loop
    vertex 0.34202 -1 0.939693
    vertex -2.44929e-16 -1 1
    vertex 0.189455 -0.693042 0.981889
  endloop
endfacet
facet normal -0.0951591 0 -0.995462
  outer loop
    vertex 0.189455 -0.693042 0.981889
    vertex -2.44929e-16 -1 1
    vertex -2.44929e-16 -0.666667 1
  endloop
endfacet
facet normal -0.335985 0.0364916 -0.94116
  outer loop
    vertex 0.191388 0.691734 0.981514
    vertex 0.34202 1 0.939693
    vertex 0.468962 0.712243 0.883218
  endloop
endfacet
facet normal -0.330872 -0.0405879 -0.942802
  outer loop
    vertex 0.31293 0.438164 0.949776
    vertex 0.191388 0.691734 0.981514
    vertex 0.468962 0.712243 0.883218
  endloop
endfacet
facet normal 0.331807 0.0350946 -0.942694
  outer loop
    vertex -0.462487 0.713523 0.886626
    vertex -0.34202 1 0.939693
    vertex -0.189577 0.691539 0.981866
  endloop
endfacet
facet normal 0.326463 -0.0387079 -0.944417
  outer loop
    vertex -0.462487 0.713523 0.886626
    vertex -0.189577 0.691539 0.981866
    vertex -0.309361 0.435708 0.950945
  endloop
endfacet
facet normal 0.335395 -0.0363532 -0.941376
  outer loop
    vertex -0.191046 -0.691825 0.981581
    vertex -0.34202 -1 0.939693
    vertex -0.468178 -0.712286 0.883634
  endloop
endfacet
facet normal 0.330301 0.0404602 -0.943008
  outer loop
    vertex -0.311787 -0.438663 0.950152
    vertex -0.191046 -0.691825 0.981581
    vertex -0.468178 -0.712286 0.883634
  endloop
endfacet
facet normal -0.331839 -0.0353446 -0.942674
  outer loop
    vertex 0.461925 -0.718226 0.886919
    vertex 0.34202 -1 0.939693
    vertex 0.189455 -0.693042 0.981889
  endloop
endfacet
facet normal -0.325686 0.038799 -0.944682
  outer loop
    vertex 0.461925 -0.718226 0.886919
    vertex 0.189455 -0.693042 0.981889
    vertex 0.309255 -0.440023 0.950979
  endloop
endfacet
facet normal -0.171681 0.0409102 -0.984303
  outer loop
    vertex -2.44929e-16 0.333333 1
    vertex 0.191388 0.691734 0.981514
    vertex 0.31293 0.438164 0.949776
  endloop
endfacet
facet normal 0.169308 0.0397514 -0.984761
  outer loop
    vertex -0.309361 0.435708 0.950945
    vertex -0.189577 0.691539 0.981866
    vertex -2.44929e-16 0.333333 1
  endloop
endfacet
facet normal 0.171105 -0.0406063 -0.984416
  outer loop
    vertex -2.44929e-16 -0.333333 1
    vertex -0.191046 -0.691825 0.981581
    vertex -0.311787 -0.438663 0.950152
  endloop
endfacet
facet normal -0.169839 -0.0398768 -0.984665
  outer loop
    vertex 0.309255 -0.440023 0.950979
    vertex 0.189455 -0.693042 0.981889
    vertex -2.44929e-16 -0.333333 1
  endloop
endfacet
facet normal 0.771402 -0.0138303 -0.636197
  outer loop
    vertex -0.835943 0.618899 0.548817
    vertex -0.690074 0.708444 0.723739
    vertex -0.730587 0.331078 0.68282
  endloop
endfacet
facet normal 0.817724 0.0317411 -0.574735
  outer loop
    vertex -0.730587 0.331078 0.68282
    vertex -0.888262 0.34656 0.459337
    vertex -0.835943 0.618899 0.548817
  endloop
endfacet
facet normal 0.772916 -0.0202244 -0.634186
  outer loop
    vertex -0.866025 1 0.5
    vertex -0.690074 0.708444 0.723739
    vertex -0.835943 0.618899 0.548817
  endloop
endfacet
facet normal -0.780056 0.0190272 -0.62542
  outer loop
    vertex 0.848954 -0.613657 0.528466
    vertex 0.690087 -0.708563 0.723726
    vertex 0.750257 -0.298775 0.661146
  endloop
endfacet
facet normal -0.848471 -0.0437043 -0.527434
  outer loop
    vertex 0.750257 -0.298775 0.661146
    vertex 0.917495 -0.366749 0.397747
    vertex 0.848954 -0.613657 0.528466
  endloop
endfacet
facet normal -0.778446 0.0118457 -0.6276
  outer loop
    vertex 0.866025 -1 0.5
    vertex 0.690087 -0.708563 0.723726
    vertex 0.848954 -0.613657 0.528466
  endloop
endfacet
facet normal -0.937365 0.0165203 -0.347958
  outer loop
    vertex 0.899688 0.579607 0.436533
    vertex 0.975636 0.315454 0.219396
    vertex 0.878635 0.247786 0.477493
  endloop
endfacet
facet normal -0.81961 -0.0186832 -0.572617
  outer loop
    vertex 0.878635 0.247786 0.477493
    vertex 0.743674 0.312967 0.668542
    vertex 0.899688 0.579607 0.436533
  endloop
endfacet
facet normal -0.933938 -0.0219661 -0.35676
  outer loop
    vertex 0.878635 0.247786 0.477493
    vertex 0.975636 0.315454 0.219396
    vertex 0.906901 -0.0420428 0.421344
  endloop
endfacet
facet normal 0.930633 -0.0166999 -0.365574
  outer loop
    vertex -0.898316 -0.574593 0.43935
    vertex -0.968393 -0.322257 0.249429
    vertex -0.874032 -0.239648 0.485868
  endloop
endfacet
facet normal 0.815243 0.0212694 -0.578728
  outer loop
    vertex -0.874032 -0.239648 0.485868
    vertex -0.73795 -0.313361 0.674856
    vertex -0.898316 -0.574593 0.43935
  endloop
endfacet
facet normal 0.924992 0.0280336 -0.378952
  outer loop
    vertex -0.874032 -0.239648 0.485868
    vertex -0.968393 -0.322257 0.249429
    vertex -0.919382 0.00628551 0.393366
  endloop
endfacet
facet normal 0.173442 -0.0487613 0.983636
  outer loop
    vertex -0.199664 0.695989 -0.979864
    vertex 5.45154e-15 1 -1
    vertex -0.34202 1 -0.939693
  endloop
endfacet
facet normal 0.938651 -0.0470672 0.341641
  outer loop
    vertex -0.950551 0.689327 -0.31057
    vertex -0.866025 1 -0.5
    vertex -0.984808 1 -0.173648
  endloop
endfacet
facet normal 0.938499 0.0503832 0.341586
  outer loop
    vertex -0.918996 -0.730149 -0.394266
    vertex -0.984808 -1 -0.173648
    vertex -0.866025 -1 -0.5
  endloop
endfacet
facet normal -0.764974 -0.052839 0.64189
  outer loop
    vertex 0.74277 0.724767 -0.669546
    vertex 0.866025 1 -0.5
    vertex 0.642788 1 -0.766044
  endloop
endfacet
facet normal -0.173542 -0.0349208 0.984207
  outer loop
    vertex 0.0787316 0.696223 -0.996896
    vertex 0.34202 1 -0.939693
    vertex 5.45154e-15 1 -1
  endloop
endfacet
facet normal 0.765575 -0.0350184 0.642393
  outer loop
    vertex -0.823825 0.69637 -0.566844
    vertex -0.642788 1 -0.766044
    vertex -0.866025 1 -0.5
  endloop
endfacet
facet normal 0.173405 0.0529232 0.983428
  outer loop
    vertex -0.139737 -0.724463 -0.990189
    vertex -0.34202 -1 -0.939693
    vertex 5.45154e-15 -1 -1
  endloop
endfacet
facet normal -0.765267 0.0450509 0.642135
  outer loop
    vertex 0.770131 -0.66357 -0.637886
    vertex 0.642788 -1 -0.766044
    vertex 0.866025 -1 -0.5
  endloop
endfacet
facet normal -0.998534 0.0541274 -3.19217e-15
  outer loop
    vertex 0.999587 -0.727352 0.028733
    vertex 0.984808 -1 -0.173648
    vertex 0.984808 -1 0.173648
  endloop
endfacet
facet normal 0.938423 -0.0519704 -0.341558
  outer loop
    vertex -0.941725 0.708415 0.336384
    vertex -0.984808 1 0.173648
    vertex -0.866025 1 0.5
  endloop
endfacet
facet normal 0.939433 0.0225957 -0.341987
  outer loop
    vertex -0.941725 0.708415 0.336384
    vertex -0.888262 0.34656 0.459337
    vertex -0.970441 0.463791 0.241339
  endloop
endfacet
facet normal -0.938931 -0.040245 0.341743
  outer loop
    vertex 0.920904 0.655521 -0.389789
    vertex 0.984808 1 -0.173648
    vertex 0.866025 1 -0.5
  endloop
endfacet
facet normal -0.499442 -0.047218 0.865059
  outer loop
    vertex 0.526009 0.688323 -0.850479
    vertex 0.642788 1 -0.766044
    vertex 0.34202 1 -0.939693
  endloop
endfacet
facet normal 0.499425 -0.0479531 0.865029
  outer loop
    vertex -0.477533 0.690457 -0.878614
    vertex -0.34202 1 -0.939693
    vertex -0.642788 1 -0.766044
  endloop
endfacet
facet normal 0.999111 -0.0421469 1.28217e-15
  outer loop
    vertex -0.999749 0.645808 0.0223986
    vertex -0.984808 1 -0.173648
    vertex -0.984808 1 0.173648
  endloop
endfacet
facet normal 0.765131 0.0488326 0.642021
  outer loop
    vertex -0.783462 -0.697026 -0.62144
    vertex -0.866025 -1 -0.5
    vertex -0.642788 -1 -0.766044
  endloop
endfacet
facet normal 0.499577 0.0411481 0.865292
  outer loop
    vertex -0.443709 -0.680607 -0.896171
    vertex -0.642788 -1 -0.766044
    vertex -0.34202 -1 -0.939693
  endloop
endfacet
facet normal -0.17345 0.0477881 0.983683
  outer loop
    vertex 0.142634 -0.692765 -0.989776
    vertex 5.45154e-15 -1 -1
    vertex 0.34202 -1 -0.939693
  endloop
endfacet
facet normal -0.499457 0.0466078 0.865084
  outer loop
    vertex 0.519798 -0.680071 -0.854289
    vertex 0.34202 -1 -0.939693
    vertex 0.642788 -1 -0.766044
  endloop
endfacet
facet normal -0.938899 0.0410899 0.341731
  outer loop
    vertex 0.949698 -0.64192 -0.313166
    vertex 0.866025 -1 -0.5
    vertex 0.984808 -1 -0.173648
  endloop
endfacet
facet normal -0.938821 0.0430672 -0.341703
  outer loop
    vertex 0.955531 -0.676245 0.294889
    vertex 0.984808 -1 0.173648
    vertex 0.866025 -1 0.5
  endloop
endfacet
facet normal -0.199847 -0.0112848 0.979762
  outer loop
    vertex 0.34202 1 -0.939693
    vertex 0.0787316 0.696223 -0.996896
    vertex 0.309325 0.601075 -0.950956
  endloop
endfacet
facet normal 0.748772 -0.0116607 0.662725
  outer loop
    vertex -0.642788 1 -0.766044
    vertex -0.823825 0.69637 -0.566844
    vertex -0.669769 0.601618 -0.74257
  endloop
endfacet
facet normal 0.956999 0.0117229 0.289855
  outer loop
    vertex -0.983251 -0.726755 -0.182259
    vertex -0.918996 -0.730149 -0.394266
    vertex -0.977786 -0.496675 -0.209608
  endloop
endfacet
facet normal 0.957022 0.00368445 0.289991
  outer loop
    vertex -0.984808 -1 -0.173648
    vertex -0.918996 -0.730149 -0.394266
    vertex -0.983251 -0.726755 -0.182259
  endloop
endfacet
facet normal -0.97749 0.0160063 -0.210373
  outer loop
    vertex 0.984301 -0.0185384 0.176497
    vertex 0.994668 -0.349714 0.103131
    vertex 0.95694 -0.193924 0.290287
  endloop
endfacet
facet normal -0.962105 0.00745161 0.272577
  outer loop
    vertex 0.984808 1 -0.173648
    vertex 0.920904 0.655521 -0.389789
    vertex 0.988322 0.675727 -0.152378
  endloop
endfacet
facet normal 0.543615 0.00312062 0.839329
  outer loop
    vertex -0.642788 -1 -0.766044
    vertex -0.443709 -0.680607 -0.896171
    vertex -0.636736 -0.699319 -0.771082
  endloop
endfacet
facet normal -0.430336 -0.00183345 0.902667
  outer loop
    vertex 0.34202 -1 -0.939693
    vertex 0.519798 -0.680071 -0.854289
    vertex 0.336578 -0.689064 -0.941656
  endloop
endfacet
facet normal -0.949319 0.0132543 0.314033
  outer loop
    vertex 0.923316 -0.163335 -0.384042
    vertex 0.97487 -0.291731 -0.222775
    vertex 0.95633 0.0273749 -0.29229
  endloop
endfacet
facet normal -0.529686 0.0164711 0.848034
  outer loop
    vertex 0.458379 -0.164098 -0.888757
    vertex 0.617892 -0.31142 -0.786263
    vertex 0.544475 0.0313514 -0.838777
  endloop
endfacet
facet normal 0.487363 -0.000178836 0.873199
  outer loop
    vertex -0.546446 -0.182945 -0.837495
    vertex -0.426351 -0.349648 -0.904558
    vertex -0.425531 -0.000165115 -0.904944
  endloop
endfacet
facet normal 0.984443 -0.018277 -0.174752
  outer loop
    vertex -0.989071 -0.00891601 0.147441
    vertex -0.997703 0.288211 0.0677348
    vertex -0.963223 0.223894 0.268704
  endloop
endfacet
facet normal 0.98611 0.0107643 -0.165744
  outer loop
    vertex -0.963223 0.223894 0.268704
    vertex -0.997703 0.288211 0.0677348
    vertex -0.970441 0.463791 0.241339
  endloop
endfacet
facet normal -0.936766 -0.0788604 -0.340955
  outer loop
    vertex 0.95297 0.818658 0.303066
    vertex 0.866025 1 0.5
    vertex 0.984808 1 0.173648
  endloop
endfacet
facet normal -0.919529 -0.0143357 -0.392761
  outer loop
    vertex 0.899688 0.579607 0.436533
    vertex 0.866025 1 0.5
    vertex 0.95297 0.818658 0.303066
  endloop
endfacet
facet normal 0.937096 0.074291 -0.341075
  outer loop
    vertex -0.953865 -0.809135 0.300235
    vertex -0.866025 -1 0.5
    vertex -0.984808 -1 0.173648
  endloop
endfacet
facet normal 0.920207 0.0140783 -0.391179
  outer loop
    vertex -0.898316 -0.574593 0.43935
    vertex -0.866025 -1 0.5
    vertex -0.953865 -0.809135 0.300235
  endloop
endfacet
facet normal -0.999737 -0.011681 0.0197473
  outer loop
    vertex 0.998362 0.179594 0.0572186
    vertex 0.992891 0.349893 -0.119031
    vertex 0.998481 -0.0204955 -0.0550969
  endloop
endfacet
facet normal 0.937576 0.0199283 0.347208
  outer loop
    vertex -0.970798 -0.211219 -0.2399
    vertex -0.881251 -0.369007 -0.472648
    vertex -0.923337 0.0663478 -0.383992
  endloop
endfacet
facet normal 0.936419 0.0142811 0.350592
  outer loop
    vertex -0.977786 -0.496675 -0.209608
    vertex -0.881251 -0.369007 -0.472648
    vertex -0.970798 -0.211219 -0.2399
  endloop
endfacet
facet normal -0.745651 -0.0199113 0.666039
  outer loop
    vertex 0.807679 0.21994 -0.589622
    vertex 0.659809 0.344845 -0.751434
    vertex 0.733518 -0.0149517 -0.67967
  endloop
endfacet
facet normal -0.740977 -0.00731702 0.67149
  outer loop
    vertex 0.817357 0.477947 -0.576131
    vertex 0.659809 0.344845 -0.751434
    vertex 0.807679 0.21994 -0.589622
  endloop
endfacet
facet normal 0.153269 0.0187045 0.988007
  outer loop
    vertex -0.257996 -0.225338 -0.966146
    vertex -0.025039 -0.362572 -0.999686
    vertex -0.125639 0.0597724 -0.992076
  endloop
endfacet
facet normal 0.141633 -0.00151573 0.989918
  outer loop
    vertex -0.254677 -0.490072 -0.967026
    vertex -0.025039 -0.362572 -0.999686
    vertex -0.257996 -0.225338 -0.966146
  endloop
endfacet
facet normal -0.917394 -0.0320387 0.396689
  outer loop
    vertex 0.923316 -0.163335 -0.384042
    vertex 0.95633 0.0273749 -0.29229
    vertex 0.871588 0.00294444 -0.490239
  endloop
endfacet
facet normal -0.895276 0.00599848 0.445472
  outer loop
    vertex 0.871588 0.00294444 -0.490239
    vertex 0.85715 -0.308107 -0.515066
    vertex 0.923316 -0.163335 -0.384042
  endloop
endfacet
facet normal -0.809116 0.0304808 0.586858
  outer loop
    vertex 0.807679 0.21994 -0.589622
    vertex 0.733518 -0.0149517 -0.67967
    vertex 0.871588 0.00294444 -0.490239
  endloop
endfacet
facet normal -0.859409 -0.0191059 0.510931
  outer loop
    vertex 0.871588 0.00294444 -0.490239
    vertex 0.909358 0.288917 -0.416015
    vertex 0.807679 0.21994 -0.589622
  endloop
endfacet
facet normal -0.863931 0.00607514 0.503574
  outer loop
    vertex 0.807679 0.21994 -0.589622
    vertex 0.909358 0.288917 -0.416015
    vertex 0.817357 0.477947 -0.576131
  endloop
endfacet
facet normal 0.342791 0.00117432 0.939411
  outer loop
    vertex -0.257996 -0.225338 -0.966146
    vertex -0.426351 -0.349648 -0.904558
    vertex -0.254677 -0.490072 -0.967026
  endloop
endfacet
facet normal 0.991964 -0.0109075 0.126046
  outer loop
    vertex -0.970798 -0.211219 -0.2399
    vertex -0.999835 -0.28958 -0.0181605
    vertex -0.977786 -0.496675 -0.209608
  endloop
endfacet
facet normal 0.897469 0.0143735 -0.440844
  outer loop
    vertex -0.866025 1 0.5
    vertex -0.835943 0.618899 0.548817
    vertex -0.941725 0.708415 0.336384
  endloop
endfacet
facet normal 0.891152 -0.0223112 -0.453156
  outer loop
    vertex -0.941725 0.708415 0.336384
    vertex -0.835943 0.618899 0.548817
    vertex -0.888262 0.34656 0.459337
  endloop
endfacet
facet normal -0.0231157 0.0171508 0.999586
  outer loop
    vertex 0.0787316 0.696223 -0.996896
    vertex -0.0886489 0.422084 -0.996063
    vertex 0.15297 0.291264 -0.988231
  endloop
endfacet
facet normal 0.854266 0.0171541 0.519553
  outer loop
    vertex -0.823825 0.69637 -0.566844
    vertex -0.907147 0.422875 -0.420813
    vertex -0.779381 0.291419 -0.626551
  endloop
endfacet
facet normal -0.910717 -0.00981727 -0.412914
  outer loop
    vertex 0.866025 -1 0.5
    vertex 0.848954 -0.613657 0.528466
    vertex 0.955531 -0.676245 0.294889
  endloop
endfacet
facet normal -0.906481 0.0286022 -0.421276
  outer loop
    vertex 0.955531 -0.676245 0.294889
    vertex 0.848954 -0.613657 0.528466
    vertex 0.917495 -0.366749 0.397747
  endloop
endfacet
facet normal -0.997541 0.0338495 -0.0613625
  outer loop
    vertex 0.998362 0.179594 0.0572186
    vertex 0.998481 -0.0204955 -0.0550969
    vertex 0.984301 -0.0185384 0.176497
  endloop
endfacet
facet normal -0.991275 -0.00882639 -0.131513
  outer loop
    vertex 0.984301 -0.0185384 0.176497
    vertex 0.975636 0.315454 0.219396
    vertex 0.998362 0.179594 0.0572186
  endloop
endfacet
facet normal 0.211403 0.0279035 0.977001
  outer loop
    vertex -0.342171 0.36717 -0.939638
    vertex -0.0886489 0.422084 -0.996063
    vertex -0.199664 0.695989 -0.979864
  endloop
endfacet
facet normal 0.950816 0.0272164 0.308559
  outer loop
    vertex -0.983482 0.370911 -0.181008
    vertex -0.907147 0.422875 -0.420813
    vertex -0.950551 0.689327 -0.31057
  endloop
endfacet
facet normal -0.751892 0.0221665 0.658913
  outer loop
    vertex 0.659809 0.344845 -0.751434
    vertex 0.817357 0.477947 -0.576131
    vertex 0.74277 0.724767 -0.669546
  endloop
endfacet
facet normal 0.153049 -0.0225784 0.987961
  outer loop
    vertex -0.025039 -0.362572 -0.999686
    vertex -0.254677 -0.490072 -0.967026
    vertex -0.139737 -0.724463 -0.990189
  endloop
endfacet
facet normal 0.9425 -0.0261931 0.333179
  outer loop
    vertex -0.881251 -0.369007 -0.472648
    vertex -0.977786 -0.496675 -0.209608
    vertex -0.918996 -0.730149 -0.394266
  endloop
endfacet
facet normal -0.870944 -0.00771691 0.491322
  outer loop
    vertex 0.920904 0.655521 -0.389789
    vertex 0.817357 0.477947 -0.576131
    vertex 0.909358 0.288917 -0.416015
  endloop
endfacet
facet normal -0.42369 0.00915047 0.905761
  outer loop
    vertex 0.309325 0.601075 -0.950956
    vertex 0.526009 0.688323 -0.850479
    vertex 0.34202 1 -0.939693
  endloop
endfacet
facet normal 0.574781 0.00928754 0.818254
  outer loop
    vertex -0.669769 0.601618 -0.74257
    vertex -0.477533 0.690457 -0.878614
    vertex -0.642788 1 -0.766044
  endloop
endfacet
facet normal 0.346 0.00562878 0.938217
  outer loop
    vertex -0.443709 -0.680607 -0.896171
    vertex -0.254677 -0.490072 -0.967026
    vertex -0.426351 -0.349648 -0.904558
  endloop
endfacet
facet normal -0.980292 0.0197246 0.196569
  outer loop
    vertex 0.949698 -0.64192 -0.313166
    vertex 0.994722 -0.502679 -0.102602
    vertex 0.97487 -0.291731 -0.222775
  endloop
endfacet
facet normal -0.999824 -0.0151982 0.0110341
  outer loop
    vertex 0.994668 -0.349714 0.103131
    vertex 0.994722 -0.502679 -0.102602
    vertex 0.999587 -0.727352 0.028733
  endloop
endfacet
facet normal 0.989669 -0.012446 -0.142828
  outer loop
    vertex -0.999749 0.645808 0.0223986
    vertex -0.970441 0.463791 0.241339
    vertex -0.997703 0.288211 0.0677348
  endloop
endfacet
facet normal 0.714007 -0.00264071 0.700133
  outer loop
    vertex -0.636736 -0.699319 -0.771082
    vertex -0.783462 -0.697026 -0.62144
    vertex -0.642788 -1 -0.766044
  endloop
endfacet
facet normal -0.240845 0.00191202 0.970562
  outer loop
    vertex 0.336578 -0.689064 -0.941656
    vertex 0.142634 -0.692765 -0.989776
    vertex 0.34202 -1 -0.939693
  endloop
endfacet
facet normal -0.976422 0.0179025 -0.215125
  outer loop
    vertex 0.984808 1 0.173648
    vertex 0.994881 0.677048 0.10105
    vertex 0.95297 0.818658 0.303066
  endloop
endfacet
facet normal -0.957907 -0.0419649 -0.283994
  outer loop
    vertex 0.975636 0.315454 0.219396
    vertex 0.899688 0.579607 0.436533
    vertex 0.994881 0.677048 0.10105
  endloop
endfacet
facet normal -0.964822 0.0742342 -0.252206
  outer loop
    vertex 0.95297 0.818658 0.303066
    vertex 0.994881 0.677048 0.10105
    vertex 0.899688 0.579607 0.436533
  endloop
endfacet
facet normal 0.978705 -0.0234102 -0.203934
  outer loop
    vertex -0.984808 -1 0.173648
    vertex -0.997246 -0.653342 0.07416
    vertex -0.953865 -0.809135 0.300235
  endloop
endfacet
facet normal 0.960018 0.0609723 -0.273218
  outer loop
    vertex -0.968393 -0.322257 0.249429
    vertex -0.898316 -0.574593 0.43935
    vertex -0.997246 -0.653342 0.07416
  endloop
endfacet
facet normal 0.96621 -0.0843799 -0.243552
  outer loop
    vertex -0.953865 -0.809135 0.300235
    vertex -0.997246 -0.653342 0.07416
    vertex -0.898316 -0.574593 0.43935
  endloop
endfacet
facet normal -0.950928 -0.04978 -0.305383
  outer loop
    vertex 0.906901 -0.0420428 0.421344
    vertex 0.984301 -0.0185384 0.176497
    vertex 0.95694 -0.193924 0.290287
  endloop
endfacet
facet normal -0.936123 -0.00498873 -0.351638
  outer loop
    vertex 0.95694 -0.193924 0.290287
    vertex 0.917495 -0.366749 0.397747
    vertex 0.906901 -0.0420428 0.421344
  endloop
endfacet
facet normal 0.960891 0.0363126 -0.274537
  outer loop
    vertex -0.919382 0.00628551 0.393366
    vertex -0.989071 -0.00891601 0.147441
    vertex -0.963223 0.223894 0.268704
  endloop
endfacet
facet normal 0.934029 -0.0162414 -0.356828
  outer loop
    vertex -0.963223 0.223894 0.268704
    vertex -0.888262 0.34656 0.459337
    vertex -0.919382 0.00628551 0.393366
  endloop
endfacet
facet normal 0.933346 -0.0128399 -0.358748
  outer loop
    vertex -0.970441 0.463791 0.241339
    vertex -0.888262 0.34656 0.459337
    vertex -0.963223 0.223894 0.268704
  endloop
endfacet
facet normal -0.983893 0.0158838 0.178052
  outer loop
    vertex 0.992891 0.349893 -0.119031
    vertex 0.95633 0.0273749 -0.29229
    vertex 0.998481 -0.0204955 -0.0550969
  endloop
endfacet
facet normal -0.640638 0.0218451 0.767532
  outer loop
    vertex 0.659809 0.344845 -0.751434
    vertex 0.544475 0.0313514 -0.838777
    vertex 0.733518 -0.0149517 -0.67967
  endloop
endfacet
facet normal -0.440334 0.0233634 0.89753
  outer loop
    vertex 0.423279 0.329564 -0.905999
    vertex 0.325214 0.00416868 -0.94564
    vertex 0.544475 0.0313514 -0.838777
  endloop
endfacet
facet normal -0.433863 -0.0390608 0.900132
  outer loop
    vertex 0.458379 -0.164098 -0.888757
    vertex 0.544475 0.0313514 -0.838777
    vertex 0.325214 0.00416868 -0.94564
  endloop
endfacet
facet normal -0.392905 -7.23092e-05 0.919579
  outer loop
    vertex 0.325214 0.00416868 -0.94564
    vertex 0.325578 -0.380492 -0.945515
    vertex 0.458379 -0.164098 -0.888757
  endloop
endfacet
facet normal 0.273596 0.0287158 0.961416
  outer loop
    vertex -0.342171 0.36717 -0.939638
    vertex -0.425531 -0.000165115 -0.904944
    vertex -0.125639 0.0597724 -0.992076
  endloop
endfacet
facet normal 0.287236 -0.0463307 0.956739
  outer loop
    vertex -0.257996 -0.225338 -0.966146
    vertex -0.125639 0.0597724 -0.992076
    vertex -0.425531 -0.000165115 -0.904944
  endloop
endfacet
facet normal 0.343405 0.000231522 0.939187
  outer loop
    vertex -0.425531 -0.000165115 -0.904944
    vertex -0.426351 -0.349648 -0.904558
    vertex -0.257996 -0.225338 -0.966146
  endloop
endfacet
facet normal 0.543655 0.0257055 0.838915
  outer loop
    vertex -0.574264 0.329845 -0.81867
    vertex -0.652153 -1.19467e-05 -0.758087
    vertex -0.425531 -0.000165115 -0.904944
  endloop
endfacet
facet normal 0.543118 -0.0499904 0.838167
  outer loop
    vertex -0.546446 -0.182945 -0.837495
    vertex -0.425531 -0.000165115 -0.904944
    vertex -0.652153 -1.19467e-05 -0.758087
  endloop
endfacet
facet normal 0.60293 0.00209772 0.797791
  outer loop
    vertex -0.652153 -1.19467e-05 -0.758087
    vertex -0.660911 -0.381953 -0.750464
    vertex -0.546446 -0.182945 -0.837495
  endloop
endfacet
facet normal 0.968851 0.0272848 0.246136
  outer loop
    vertex -0.983482 0.370911 -0.181008
    vertex -0.995256 0.03378 -0.0972887
    vertex -0.923337 0.0663478 -0.383992
  endloop
endfacet
facet normal 0.970207 -0.042031 0.238603
  outer loop
    vertex -0.970798 -0.211219 -0.2399
    vertex -0.923337 0.0663478 -0.383992
    vertex -0.995256 0.03378 -0.0972887
  endloop
endfacet
facet normal 0.990443 0.0193907 0.136554
  outer loop
    vertex -0.995256 0.03378 -0.0972887
    vertex -0.999835 -0.28958 -0.0181605
    vertex -0.970798 -0.211219 -0.2399
  endloop
endfacet
facet normal 0.0610204 0.026011 0.997798
  outer loop
    vertex -0.199664 0.695989 -0.979864
    vertex 0.0787316 0.696223 -0.996896
    vertex 5.45154e-15 1 -1
  endloop
endfacet
facet normal 0.0610557 -0.0342478 0.997547
  outer loop
    vertex -0.0886489 0.422084 -0.996063
    vertex 0.0787316 0.696223 -0.996896
    vertex -0.199664 0.695989 -0.979864
  endloop
endfacet
facet normal 0.895778 0.0268217 0.443691
  outer loop
    vertex -0.950551 0.689327 -0.31057
    vertex -0.823825 0.69637 -0.566844
    vertex -0.866025 1 -0.5
  endloop
endfacet
facet normal 0.896185 -0.0369511 0.44214
  outer loop
    vertex -0.907147 0.422875 -0.420813
    vertex -0.823825 0.69637 -0.566844
    vertex -0.950551 0.689327 -0.31057
  endloop
endfacet
facet normal -0.838263 0.0404265 0.543766
  outer loop
    vertex 0.74277 0.724767 -0.669546
    vertex 0.920904 0.655521 -0.389789
    vertex 0.866025 1 -0.5
  endloop
endfacet
facet normal -0.848495 -0.0572952 0.526093
  outer loop
    vertex 0.817357 0.477947 -0.576131
    vertex 0.920904 0.655521 -0.389789
    vertex 0.74277 0.724767 -0.669546
  endloop
endfacet
facet normal 0.290283 -0.0378735 0.956191
  outer loop
    vertex -0.139737 -0.724463 -0.990189
    vertex -0.443709 -0.680607 -0.896171
    vertex -0.34202 -1 -0.939693
  endloop
endfacet
facet normal 0.302173 0.0541304 0.951715
  outer loop
    vertex -0.254677 -0.490072 -0.967026
    vertex -0.443709 -0.680607 -0.896171
    vertex -0.139737 -0.724463 -0.990189
  endloop
endfacet
facet normal -0.651833 -0.0417234 0.757214
  outer loop
    vertex 0.770131 -0.66357 -0.637886
    vertex 0.519798 -0.680071 -0.854289
    vertex 0.642788 -1 -0.766044
  endloop
endfacet
facet normal -0.990062 -0.0451855 0.133175
  outer loop
    vertex 0.999587 -0.727352 0.028733
    vertex 0.949698 -0.64192 -0.313166
    vertex 0.984808 -1 -0.173648
  endloop
endfacet
facet normal -0.984074 0.0733447 0.16192
  outer loop
    vertex 0.994722 -0.502679 -0.102602
    vertex 0.949698 -0.64192 -0.313166
    vertex 0.999587 -0.727352 0.028733
  endloop
endfacet
facet normal -0.64381 0.0341366 0.764423
  outer loop
    vertex 0.526009 0.688323 -0.850479
    vertex 0.74277 0.724767 -0.669546
    vertex 0.642788 1 -0.766044
  endloop
endfacet
facet normal 0.341513 0.0358124 0.939195
  outer loop
    vertex -0.477533 0.690457 -0.878614
    vertex -0.199664 0.695989 -0.979864
    vertex -0.34202 1 -0.939693
  endloop
endfacet
facet normal 0.987569 0.0421574 0.15143
  outer loop
    vertex -0.999749 0.645808 0.0223986
    vertex -0.950551 0.689327 -0.31057
    vertex -0.984808 1 -0.173648
  endloop
endfacet
facet normal 0.860325 -0.0304935 0.508833
  outer loop
    vertex -0.783462 -0.697026 -0.62144
    vertex -0.918996 -0.730149 -0.394266
    vertex -0.866025 -1 -0.5
  endloop
endfacet
facet normal 0.00239613 -0.0343717 0.999406
  outer loop
    vertex 0.142634 -0.692765 -0.989776
    vertex -0.139737 -0.724463 -0.990189
    vertex 5.45154e-15 -1 -1
  endloop
endfacet
facet normal 0.999357 0.0358585 1.28156e-15
  outer loop
    vertex -0.997246 -0.653342 0.07416
    vertex -0.984808 -1 0.173648
    vertex -0.984808 -1 -0.173648
  endloop
endfacet
facet normal 0.998444 -0.00393701 0.0556239
  outer loop
    vertex -0.983251 -0.726755 -0.182259
    vertex -0.997246 -0.653342 0.07416
    vertex -0.984808 -1 -0.173648
  endloop
endfacet
facet normal 0.998104 -0.016665 0.0592493
  outer loop
    vertex -0.977786 -0.496675 -0.209608
    vertex -0.997246 -0.653342 0.07416
    vertex -0.983251 -0.726755 -0.182259
  endloop
endfacet
facet normal 0.996061 0.0284052 0.0839923
  outer loop
    vertex -0.997246 -0.653342 0.07416
    vertex -0.977786 -0.496675 -0.209608
    vertex -0.999835 -0.28958 -0.0181605
  endloop
endfacet
facet normal -0.999514 -0.0311773 -3.19615e-15
  outer loop
    vertex 0.994881 0.677048 0.10105
    vertex 0.984808 1 0.173648
    vertex 0.984808 1 -0.173648
  endloop
endfacet
facet normal -0.999622 -0.00913377 0.0259197
  outer loop
    vertex 0.988322 0.675727 -0.152378
    vertex 0.994881 0.677048 0.10105
    vertex 0.984808 1 -0.173648
  endloop
endfacet
facet normal -0.987044 -0.0302472 -0.157573
  outer loop
    vertex 0.955531 -0.676245 0.294889
    vertex 0.999587 -0.727352 0.028733
    vertex 0.984808 -1 0.173648
  endloop
endfacet
facet normal 0.981154 0.0393917 -0.189171
  outer loop
    vertex -0.941725 0.708415 0.336384
    vertex -0.999749 0.645808 0.0223986
    vertex -0.984808 1 0.173648
  endloop
endfacet
facet normal 0.983875 -0.0486188 -0.172125
  outer loop
    vertex -0.970441 0.463791 0.241339
    vertex -0.999749 0.645808 0.0223986
    vertex -0.941725 0.708415 0.336384
  endloop
endfacet
facet normal -0.993719 -0.0942904 -0.0602596
  outer loop
    vertex 0.998362 0.179594 0.0572186
    vertex 0.975636 0.315454 0.219396
    vertex 0.992891 0.349893 -0.119031
  endloop
endfacet
facet normal -0.99818 0.0377272 -0.0470528
  outer loop
    vertex 0.994881 0.677048 0.10105
    vertex 0.992891 0.349893 -0.119031
    vertex 0.975636 0.315454 0.219396
  endloop
endfacet
facet normal 0.992566 -0.0232564 -0.119468
  outer loop
    vertex -0.997246 -0.653342 0.07416
    vertex -0.999835 -0.28958 -0.0181605
    vertex -0.968393 -0.322257 0.249429
  endloop
endfacet
facet normal 0.543043 0.05411 0.83796
  outer loop
    vertex -0.660911 -0.381953 -0.750464
    vertex -0.426351 -0.349648 -0.904558
    vertex -0.546446 -0.182945 -0.837495
  endloop
endfacet
facet normal 0.549785 -0.00766841 0.835271
  outer loop
    vertex -0.426351 -0.349648 -0.904558
    vertex -0.660911 -0.381953 -0.750464
    vertex -0.443709 -0.680607 -0.896171
  endloop
endfacet
facet normal 0.544671 -0.0129866 0.838549
  outer loop
    vertex -0.636736 -0.699319 -0.771082
    vertex -0.443709 -0.680607 -0.896171
    vertex -0.660911 -0.381953 -0.750464
  endloop
endfacet
facet normal 0.71407 0.00891717 0.700018
  outer loop
    vertex -0.660911 -0.381953 -0.750464
    vertex -0.783462 -0.697026 -0.62144
    vertex -0.636736 -0.699319 -0.771082
  endloop
endfacet
facet normal -0.490405 0.0731828 0.868417
  outer loop
    vertex 0.325578 -0.380492 -0.945515
    vertex 0.617892 -0.31142 -0.786263
    vertex 0.458379 -0.164098 -0.888757
  endloop
endfacet
facet normal -0.471284 -0.0372014 0.881197
  outer loop
    vertex 0.617892 -0.31142 -0.786263
    vertex 0.325578 -0.380492 -0.945515
    vertex 0.519798 -0.680071 -0.854289
  endloop
endfacet
facet normal -0.430245 -0.00404627 0.902703
  outer loop
    vertex 0.336578 -0.689064 -0.941656
    vertex 0.519798 -0.680071 -0.854289
    vertex 0.325578 -0.380492 -0.945515
  endloop
endfacet
facet normal -0.240873 0.00355273 0.97055
  outer loop
    vertex 0.325578 -0.380492 -0.945515
    vertex 0.142634 -0.692765 -0.989776
    vertex 0.336578 -0.689064 -0.941656
  endloop
endfacet
facet normal -0.54807 0.0275655 0.835978
  outer loop
    vertex 0.423279 0.329564 -0.905999
    vertex 0.659809 0.344845 -0.751434
    vertex 0.526009 0.688323 -0.850479
  endloop
endfacet
facet normal -0.637944 -0.0265781 0.769624
  outer loop
    vertex 0.659809 0.344845 -0.751434
    vertex 0.74277 0.724767 -0.669546
    vertex 0.526009 0.688323 -0.850479
  endloop
endfacet
facet normal -0.154956 -0.0490707 0.986702
  outer loop
    vertex 0.325578 -0.380492 -0.945515
    vertex -0.025039 -0.362572 -0.999686
    vertex 0.142634 -0.692765 -0.989776
  endloop
endfacet
facet normal -0.00457014 0.0276831 0.999606
  outer loop
    vertex -0.025039 -0.362572 -0.999686
    vertex -0.139737 -0.724463 -0.990189
    vertex 0.142634 -0.692765 -0.989776
  endloop
endfacet
facet normal -0.925554 0.0902153 0.36771
  outer loop
    vertex 0.85715 -0.308107 -0.515066
    vertex 0.97487 -0.291731 -0.222775
    vertex 0.923316 -0.163335 -0.384042
  endloop
endfacet
facet normal -0.926587 -0.0301589 0.37487
  outer loop
    vertex 0.97487 -0.291731 -0.222775
    vertex 0.85715 -0.308107 -0.515066
    vertex 0.949698 -0.64192 -0.313166
  endloop
endfacet
facet normal 0.781427 -0.0492085 0.622054
  outer loop
    vertex -0.660911 -0.381953 -0.750464
    vertex -0.881251 -0.369007 -0.472648
    vertex -0.783462 -0.697026 -0.62144
  endloop
endfacet
facet normal 0.857143 0.0221042 0.514604
  outer loop
    vertex -0.881251 -0.369007 -0.472648
    vertex -0.918996 -0.730149 -0.394266
    vertex -0.783462 -0.697026 -0.62144
  endloop
endfacet
facet normal 0.458949 0.0245216 0.888124
  outer loop
    vertex -0.574264 0.329845 -0.81867
    vertex -0.342171 0.36717 -0.939638
    vertex -0.477533 0.690457 -0.878614
  endloop
endfacet
facet normal 0.34276 -0.0336966 0.938819
  outer loop
    vertex -0.342171 0.36717 -0.939638
    vertex -0.199664 0.695989 -0.979864
    vertex -0.477533 0.690457 -0.878614
  endloop
endfacet
facet normal 0.998012 0.0135133 0.0615534
  outer loop
    vertex -0.997703 0.288211 0.0677348
    vertex -0.983482 0.370911 -0.181008
    vertex -0.999749 0.645808 0.0223986
  endloop
endfacet
facet normal 0.989085 -0.0452325 0.140233
  outer loop
    vertex -0.983482 0.370911 -0.181008
    vertex -0.950551 0.689327 -0.31057
    vertex -0.999749 0.645808 0.0223986
  endloop
endfacet
facet normal -0.963179 0.0111186 0.268631
  outer loop
    vertex 0.909358 0.288917 -0.416015
    vertex 0.992891 0.349893 -0.119031
    vertex 0.920904 0.655521 -0.389789
  endloop
endfacet
facet normal -0.962187 0.0143488 0.272013
  outer loop
    vertex 0.988322 0.675727 -0.152378
    vertex 0.920904 0.655521 -0.389789
    vertex 0.992891 0.349893 -0.119031
  endloop
endfacet
facet normal -0.999599 -0.0113608 0.0259307
  outer loop
    vertex 0.992891 0.349893 -0.119031
    vertex 0.994881 0.677048 0.10105
    vertex 0.988322 0.675727 -0.152378
  endloop
endfacet
facet normal -0.966321 -0.0339832 -0.255086
  outer loop
    vertex 0.955531 -0.676245 0.294889
    vertex 0.917495 -0.366749 0.397747
    vertex 0.994668 -0.349714 0.103131
  endloop
endfacet
facet normal -0.966207 0.0655075 -0.249304
  outer loop
    vertex 0.994668 -0.349714 0.103131
    vertex 0.917495 -0.366749 0.397747
    vertex 0.95694 -0.193924 0.290287
  endloop
endfacet
facet normal -0.985749 0.0200634 -0.167019
  outer loop
    vertex 0.994668 -0.349714 0.103131
    vertex 0.999587 -0.727352 0.028733
    vertex 0.955531 -0.676245 0.294889
  endloop
endfacet
facet normal 0.998515 -0.0225595 0.0495891
  outer loop
    vertex -0.995256 0.03378 -0.0972887
    vertex -0.983482 0.370911 -0.181008
    vertex -0.997703 0.288211 0.0677348
  endloop
endfacet
facet normal 0.464848 -0.0218914 0.88512
  outer loop
    vertex -0.425531 -0.000165115 -0.904944
    vertex -0.342171 0.36717 -0.939638
    vertex -0.574264 0.329845 -0.81867
  endloop
endfacet
facet normal -0.959638 -0.0407064 0.278275
  outer loop
    vertex 0.95633 0.0273749 -0.29229
    vertex 0.992891 0.349893 -0.119031
    vertex 0.909358 0.288917 -0.416015
  endloop
endfacet
facet normal -0.545252 -0.032778 0.837631
  outer loop
    vertex 0.544475 0.0313514 -0.838777
    vertex 0.659809 0.344845 -0.751434
    vertex 0.423279 0.329564 -0.905999
  endloop
endfacet
facet normal 0.686168 -0.0285224 0.726884
  outer loop
    vertex -0.574264 0.329845 -0.81867
    vertex -0.779381 0.291419 -0.626551
    vertex -0.652153 -1.19467e-05 -0.758087
  endloop
endfacet
facet normal -0.286999 -0.0301481 0.957456
  outer loop
    vertex 0.423279 0.329564 -0.905999
    vertex 0.15297 0.291264 -0.988231
    vertex 0.325214 0.00416868 -0.94564
  endloop
endfacet
facet normal 0.863618 -0.00914152 0.504064
  outer loop
    vertex -0.779381 0.291419 -0.626551
    vertex -0.923337 0.0663478 -0.383992
    vertex -0.794663 -0.0771117 -0.607051
  endloop
endfacet
facet normal 0.853687 0.0149993 0.520571
  outer loop
    vertex -0.907147 0.422875 -0.420813
    vertex -0.923337 0.0663478 -0.383992
    vertex -0.779381 0.291419 -0.626551
  endloop
endfacet
facet normal -0.00602841 -0.0093539 0.999938
  outer loop
    vertex 0.15297 0.291264 -0.988231
    vertex -0.125639 0.0597724 -0.992076
    vertex 0.127802 -0.0740361 -0.9918
  endloop
endfacet
facet normal -0.0250611 0.0135583 0.999594
  outer loop
    vertex -0.0886489 0.422084 -0.996063
    vertex -0.125639 0.0597724 -0.992076
    vertex 0.15297 0.291264 -0.988231
  endloop
endfacet
facet normal -0.872627 -0.0495989 0.485862
  outer loop
    vertex 0.866025 -1 -0.5
    vertex 0.949698 -0.64192 -0.313166
    vertex 0.770131 -0.66357 -0.637886
  endloop
endfacet
facet normal -0.875449 0.0481526 0.480906
  outer loop
    vertex 0.770131 -0.66357 -0.637886
    vertex 0.949698 -0.64192 -0.313166
    vertex 0.85715 -0.308107 -0.515066
  endloop
endfacet
facet normal 0.747603 -0.0158435 0.663957
  outer loop
    vertex -0.779381 0.291419 -0.626551
    vertex -0.669769 0.601618 -0.74257
    vertex -0.823825 0.69637 -0.566844
  endloop
endfacet
facet normal 0.679838 0.0337699 0.732584
  outer loop
    vertex -0.669769 0.601618 -0.74257
    vertex -0.779381 0.291419 -0.626551
    vertex -0.574264 0.329845 -0.81867
  endloop
endfacet
facet normal 0.584243 -0.0218603 0.811284
  outer loop
    vertex -0.477533 0.690457 -0.878614
    vertex -0.669769 0.601618 -0.74257
    vertex -0.574264 0.329845 -0.81867
  endloop
endfacet
facet normal -0.201713 -0.0160241 0.979314
  outer loop
    vertex 0.15297 0.291264 -0.988231
    vertex 0.309325 0.601075 -0.950956
    vertex 0.0787316 0.696223 -0.996896
  endloop
endfacet
facet normal -0.2953 0.0341572 0.954794
  outer loop
    vertex 0.309325 0.601075 -0.950956
    vertex 0.15297 0.291264 -0.988231
    vertex 0.423279 0.329564 -0.905999
  endloop
endfacet
facet normal -0.413061 -0.0226146 0.910423
  outer loop
    vertex 0.526009 0.688323 -0.850479
    vertex 0.309325 0.601075 -0.950956
    vertex 0.423279 0.329564 -0.905999
  endloop
endfacet
facet normal -0.812239 0.0229569 -0.582872
  outer loop
    vertex 0.866025 1 0.5
    vertex 0.899688 0.579607 0.436533
    vertex 0.712167 0.685334 0.70201
  endloop
endfacet
facet normal -0.820012 -0.0179674 -0.572064
  outer loop
    vertex 0.712167 0.685334 0.70201
    vertex 0.899688 0.579607 0.436533
    vertex 0.743674 0.312967 0.668542
  endloop
endfacet
facet normal 0.810735 -0.0218647 -0.585005
  outer loop
    vertex -0.866025 -1 0.5
    vertex -0.898316 -0.574593 0.43935
    vertex -0.710623 -0.684467 0.703573
  endloop
endfacet
facet normal 0.81823 0.0157814 -0.574675
  outer loop
    vertex -0.710623 -0.684467 0.703573
    vertex -0.898316 -0.574593 0.43935
    vertex -0.73795 -0.313361 0.674856
  endloop
endfacet
facet normal 0.999355 -0.0212387 -0.0289634
  outer loop
    vertex -0.989071 -0.00891601 0.147441
    vertex -0.999835 -0.28958 -0.0181605
    vertex -0.995256 0.03378 -0.0972887
  endloop
endfacet
facet normal 0.993159 0.0286973 -0.113193
  outer loop
    vertex -0.989071 -0.00891601 0.147441
    vertex -0.968393 -0.322257 0.249429
    vertex -0.999835 -0.28958 -0.0181605
  endloop
endfacet
facet normal -0.749089 0.0547829 0.660201
  outer loop
    vertex 0.617892 -0.31142 -0.786263
    vertex 0.85715 -0.308107 -0.515066
    vertex 0.733518 -0.0149517 -0.67967
  endloop
endfacet
facet normal -0.646893 -0.0217727 0.76227
  outer loop
    vertex 0.617892 -0.31142 -0.786263
    vertex 0.733518 -0.0149517 -0.67967
    vertex 0.544475 0.0313514 -0.838777
  endloop
endfacet
facet normal -0.996626 -0.0659924 0.0488009
  outer loop
    vertex 0.994722 -0.502679 -0.102602
    vertex 0.994668 -0.349714 0.103131
    vertex 0.97487 -0.291731 -0.222775
  endloop
endfacet
facet normal -0.996664 0.0444431 0.0684514
  outer loop
    vertex 0.97487 -0.291731 -0.222775
    vertex 0.994668 -0.349714 0.103131
    vertex 0.998481 -0.0204955 -0.0550969
  endloop
endfacet
facet normal -0.985065 -0.0199763 0.171023
  outer loop
    vertex 0.97487 -0.291731 -0.222775
    vertex 0.998481 -0.0204955 -0.0550969
    vertex 0.95633 0.0273749 -0.29229
  endloop
endfacet
facet normal 0.728104 -0.00301473 0.68546
  outer loop
    vertex -0.794663 -0.0771117 -0.607051
    vertex -0.660911 -0.381953 -0.750464
    vertex -0.652153 -1.19467e-05 -0.758087
  endloop
endfacet
facet normal 0.783601 0.0525853 0.619035
  outer loop
    vertex -0.881251 -0.369007 -0.472648
    vertex -0.660911 -0.381953 -0.750464
    vertex -0.794663 -0.0771117 -0.607051
  endloop
endfacet
facet normal -0.227719 0.000101541 0.973727
  outer loop
    vertex 0.127802 -0.0740361 -0.9918
    vertex 0.325578 -0.380492 -0.945515
    vertex 0.325214 0.00416868 -0.94564
  endloop
endfacet
facet normal -0.149865 0.0523983 0.987317
  outer loop
    vertex -0.025039 -0.362572 -0.999686
    vertex 0.325578 -0.380492 -0.945515
    vertex 0.127802 -0.0740361 -0.9918
  endloop
endfacet
facet normal -0.748845 -0.0451384 0.661206
  outer loop
    vertex 0.770131 -0.66357 -0.637886
    vertex 0.85715 -0.308107 -0.515066
    vertex 0.617892 -0.31142 -0.786263
  endloop
endfacet
facet normal -0.654896 0.0349591 0.75491
  outer loop
    vertex 0.519798 -0.680071 -0.854289
    vertex 0.770131 -0.66357 -0.637886
    vertex 0.617892 -0.31142 -0.786263
  endloop
endfacet
facet normal -0.846719 0.0204218 -0.531649
  outer loop
    vertex 0.878635 0.247786 0.477493
    vertex 0.906901 -0.0420428 0.421344
    vertex 0.782419 0.0401013 0.622752
  endloop
endfacet
facet normal -0.819855 -0.0203907 -0.572207
  outer loop
    vertex 0.743674 0.312967 0.668542
    vertex 0.878635 0.247786 0.477493
    vertex 0.782419 0.0401013 0.622752
  endloop
endfacet
facet normal 0.855188 0.0221857 -0.517842
  outer loop
    vertex -0.774573 0.00568484 0.632485
    vertex -0.919382 0.00628551 0.393366
    vertex -0.888262 0.34656 0.459337
  endloop
endfacet
facet normal 0.816234 -0.0210281 -0.577339
  outer loop
    vertex -0.730587 0.331078 0.68282
    vertex -0.774573 0.00568484 0.632485
    vertex -0.888262 0.34656 0.459337
  endloop
endfacet
facet normal 0.854744 -0.0371155 -0.517722
  outer loop
    vertex -0.874032 -0.239648 0.485868
    vertex -0.919382 0.00628551 0.393366
    vertex -0.774573 0.00568484 0.632485
  endloop
endfacet
facet normal 0.814434 0.0164584 -0.580022
  outer loop
    vertex -0.73795 -0.313361 0.674856
    vertex -0.874032 -0.239648 0.485868
    vertex -0.774573 0.00568484 0.632485
  endloop
endfacet
facet normal 0.150756 0.0480483 -0.987403
  outer loop
    vertex -0.205491 0.206183 0.978659
    vertex -2.44929e-16 -1.33227e-15 1
    vertex -0.298402 -8.88178e-16 0.95444
  endloop
endfacet
facet normal 0.314443 -0.0302479 -0.948794
  outer loop
    vertex -0.423993 0.224345 0.905666
    vertex -0.205491 0.206183 0.978659
    vertex -0.298402 -8.88178e-16 0.95444
  endloop
endfacet
facet normal 0.150757 -0.0478698 -0.987411
  outer loop
    vertex -0.298402 -8.88178e-16 0.95444
    vertex -2.44929e-16 -1.33227e-15 1
    vertex -0.205795 -0.206594 0.978595
  endloop
endfacet
facet normal 0.314714 0.0301504 -0.948707
  outer loop
    vertex -0.298402 -8.88178e-16 0.95444
    vertex -0.205795 -0.206594 0.978595
    vertex -0.425238 -0.229182 0.905081
  endloop
endfacet
facet normal -0.158793 0.0559447 -0.985726
  outer loop
    vertex 0.314175 -0.000418796 0.949365
    vertex -2.44929e-16 -1.33227e-15 1
    vertex 0.209081 0.204029 0.977898
  endloop
endfacet
facet normal -0.316406 -0.0303202 -0.948139
  outer loop
    vertex 0.314175 -0.000418796 0.949365
    vertex 0.209081 0.204029 0.977898
    vertex 0.426185 0.229419 0.904636
  endloop
endfacet
facet normal -0.158935 -0.0564193 -0.985676
  outer loop
    vertex 0.206742 -0.204955 0.978395
    vertex -2.44929e-16 -1.33227e-15 1
    vertex 0.314175 -0.000418796 0.949365
  endloop
endfacet
facet normal -0.313807 0.0301324 -0.949008
  outer loop
    vertex 0.423521 -0.231006 0.905886
    vertex 0.206742 -0.204955 0.978395
    vertex 0.314175 -0.000418796 0.949365
  endloop
endfacet
facet normal 0 -1 0
  outer loop
    vertex -0.866025 1 -0.5
    vertex -0.585511 1 -0.446373
    vertex -0.671185 1 -0.108383
  endloop
endfacet
facet normal 0 -1 0
  outer loop
    vertex -0.866025 1 -0.5
    vertex -0.671185 1 -0.108383
    vertex -0.984808 1 -0.173648
  endloop
endfacet
facet normal 0 -1 0
  outer loop
    vertex -0.642788 1 0.766044
    vertex -0.429334 1 0.511046
    vertex -0.34202 1 0.939693
  endloop
endfacet
facet normal -0 -1 0
  outer loop
    vertex 0.642788 1 -0.766044
    vertex 0.235936 1 -0.63264
    vertex 0.34202 1 -0.939693
  endloop
endfacet
facet normal 0 -1 -0
  outer loop
    vertex 0.34202 1 0.939693
    vertex 0.231623 1 0.617249
    vertex 0.642788 1 0.766044
  endloop
endfacet
facet normal 0 -1 0
  outer loop
    vertex -2.44929e-16 1 1
    vertex 0.231623 1 0.617249
    vertex 0.34202 1 0.939693
  endloop
endfacet
facet normal -0 -1 0
  outer loop
    vertex 0.34202 1 -0.939693
    vertex 0.235936 1 -0.63264
    vertex 5.45154e-15 1 -1
  endloop
endfacet
facet normal 0 -1 0
  outer loop
    vertex -0.866025 1 0.5
    vertex -0.429334 1 0.511046
    vertex -0.642788 1 0.766044
  endloop
endfacet
facet normal 0 -1 -0
  outer loop
    vertex 0.984808 1 0.173648
    vertex 0.629281 1 -0.00828079
    vertex 0.984808 1 -0.173648
  endloop
endfacet
facet normal 0 -1 -0
  outer loop
    vertex -0.34202 1 0.939693
    vertex -0.429334 1 0.511046
    vertex -0.128437 1 0.726566
  endloop
endfacet
facet normal 0 -1 -0
  outer loop
    vertex -2.44929e-16 1 1
    vertex -0.128437 1 0.726566
    vertex 0.231623 1 0.617249
  endloop
endfacet
facet normal 0 -1 0
  outer loop
    vertex 5.45154e-15 1 -1
    vertex 0.235936 1 -0.63264
    vertex -0.104628 1 -0.73304
  endloop
endfacet
facet normal 0 -1 0
  outer loop
    vertex -0.866025 1 0.5
    vertex -0.700799 1 0.256659
    vertex -0.429334 1 0.511046
  endloop
endfacet
facet normal -0 -1 0
  outer loop
    vertex -0.411314 1 -0.2909
    vertex -0.671185 1 -0.108383
    vertex -0.585511 1 -0.446373
  endloop
endfacet
facet normal 0 -1 0
  outer loop
    vertex 0.642788 1 -0.766044
    vertex 0.561786 1 -0.505406
    vertex 0.235936 1 -0.63264
  endloop
endfacet
facet normal 0 -1 0
  outer loop
    vertex 0.642788 1 0.766044
    vertex 0.231623 1 0.617249
    vertex 0.569487 1 0.488489
  endloop
endfacet
facet normal 0 -1 -0
  outer loop
    vertex 0.41521 1 0.271218
    vertex 0.268607 1 -0.0165093
    vertex 0.629281 1 -0.00828079
  endloop
endfacet
facet normal 0 -1 0
  outer loop
    vertex -0.411314 1 -0.2909
    vertex -0.329596 1 -0.566146
    vertex -0.169109 1 -0.28563
  endloop
endfacet
facet normal 0 -1 -0
  outer loop
    vertex -0.46004 1 0.168416
    vertex -0.671185 1 -0.108383
    vertex -0.324515 1 -0.0526994
  endloop
endfacet
facet normal 0 -1 0
  outer loop
    vertex -0.411314 1 -0.2909
    vertex -0.324515 1 -0.0526994
    vertex -0.671185 1 -0.108383
  endloop
endfacet
facet normal 0 -1 0
  outer loop
    vertex 0.388931 1 -0.326352
    vertex 0.629281 1 -0.00828079
    vertex 0.268607 1 -0.0165093
  endloop
endfacet
facet normal -0 -1 0
  outer loop
    vertex 0.984808 1 -0.173648
    vertex 0.629281 1 -0.00828079
    vertex 0.683409 1 -0.299517
  endloop
endfacet
facet normal -0 -1 0
  outer loop
    vertex 0.984808 1 0.173648
    vertex 0.691787 1 0.287932
    vertex 0.629281 1 -0.00828079
  endloop
endfacet
facet normal -0 -1 0
  outer loop
    vertex -0.0518016 1 -0.50134
    vertex -0.169109 1 -0.28563
    vertex -0.329596 1 -0.566146
  endloop
endfacet
facet normal 0 -1 0
  outer loop
    vertex 0.41521 1 0.271218
    vertex 0.629281 1 -0.00828079
    vertex 0.691787 1 0.287932
  endloop
endfacet
facet normal 0 -1 0
  outer loop
    vertex 0.388931 1 -0.326352
    vertex 0.683409 1 -0.299517
    vertex 0.629281 1 -0.00828079
  endloop
endfacet
facet normal 0 -1 0
  outer loop
    vertex -0.984808 1 -0.173648
    vertex -0.671185 1 -0.108383
    vertex -0.984808 1 0.173648
  endloop
endfacet
facet normal 0 -1 0
  outer loop
    vertex -0.34202 1 -0.939693
    vertex -0.329596 1 -0.566146
    vertex -0.642788 1 -0.766044
  endloop
endfacet
facet normal 0 -1 0
  outer loop
    vertex -0.0850345 1 0.468013
    vertex -0.128437 1 0.726566
    vertex -0.429334 1 0.511046
  endloop
endfacet
facet normal 0 -1 -0
  outer loop
    vertex -0.0518016 1 -0.50134
    vertex -0.104628 1 -0.73304
    vertex 0.235936 1 -0.63264
  endloop
endfacet
facet normal 0 -1 0
  outer loop
    vertex -0.46004 1 0.168416
    vertex -0.429334 1 0.511046
    vertex -0.700799 1 0.256659
  endloop
endfacet
facet normal 0 -1 0
  outer loop
    vertex -0.0850345 1 0.468013
    vertex 0.231623 1 0.617249
    vertex -0.128437 1 0.726566
  endloop
endfacet
facet normal 0 -1 0
  outer loop
    vertex 0.41521 1 0.271218
    vertex 0.100474 1 0.258427
    vertex 0.268607 1 -0.0165093
  endloop
endfacet
facet normal -0 -1 0
  outer loop
    vertex 0.41521 1 0.271218
    vertex 0.231623 1 0.617249
    vertex 0.100474 1 0.258427
  endloop
endfacet
facet normal -0 -1 0
  outer loop
    vertex 0.388931 1 -0.326352
    vertex 0.10839 1 -0.289242
    vertex 0.235936 1 -0.63264
  endloop
endfacet
facet normal 0 -1 0
  outer loop
    vertex -0.0850345 1 0.468013
    vertex 0.100474 1 0.258427
    vertex 0.231623 1 0.617249
  endloop
endfacet
facet normal -0 -1 0
  outer loop
    vertex -0.0850345 1 0.468013
    vertex -0.429334 1 0.511046
    vertex -0.199498 1 0.226779
  endloop
endfacet
facet normal 0 -1 0
  outer loop
    vertex -0.0518016 1 -0.50134
    vertex 0.235936 1 -0.63264
    vertex 0.10839 1 -0.289242
  endloop
endfacet
facet normal 0 -1 0
  outer loop
    vertex -0.46004 1 0.168416
    vertex -0.199498 1 0.226779
    vertex -0.429334 1 0.511046
  endloop
endfacet
facet normal 0 -1 0
  outer loop
    vertex -0.0359418 1 -0.026479
    vertex 0.268607 1 -0.0165093
    vertex 0.100474 1 0.258427
  endloop
endfacet
facet normal 0 -1 0
  outer loop
    vertex -0.984808 1 0.173648
    vertex -0.671185 1 -0.108383
    vertex -0.700799 1 0.256659
  endloop
endfacet
facet normal 0 -1 0
  outer loop
    vertex -0.34202 1 -0.939693
    vertex -0.104628 1 -0.73304
    vertex -0.329596 1 -0.566146
  endloop
endfacet
facet normal 0 -1 -0
  outer loop
    vertex 0.866025 1 0.5
    vertex 0.691787 1 0.287932
    vertex 0.984808 1 0.173648
  endloop
endfacet
facet normal 0 -1 0
  outer loop
    vertex 0.984808 1 -0.173648
    vertex 0.683409 1 -0.299517
    vertex 0.866025 1 -0.5
  endloop
endfacet
facet normal 0 -1 -0
  outer loop
    vertex 0.388931 1 -0.326352
    vertex 0.235936 1 -0.63264
    vertex 0.561786 1 -0.505406
  endloop
endfacet
facet normal 0 -1 0
  outer loop
    vertex 0.41521 1 0.271218
    vertex 0.569487 1 0.488489
    vertex 0.231623 1 0.617249
  endloop
endfacet
facet normal 0 -1 0
  outer loop
    vertex 0.388931 1 -0.326352
    vertex 0.268607 1 -0.0165093
    vertex 0.10839 1 -0.289242
  endloop
endfacet
facet normal 0 -1 0
  outer loop
    vertex -0.0359418 1 -0.026479
    vertex 0.10839 1 -0.289242
    vertex 0.268607 1 -0.0165093
  endloop
endfacet
facet normal 0 -1 0
  outer loop
    vertex 0.866025 1 -0.5
    vertex 0.561786 1 -0.505406
    vertex 0.642788 1 -0.766044
  endloop
endfacet
facet normal 0 -1 -0
  outer loop
    vertex 0.642788 1 0.766044
    vertex 0.569487 1 0.488489
    vertex 0.866025 1 0.5
  endloop
endfacet
facet normal 0 -1 0
  outer loop
    vertex -0.984808 1 0.173648
    vertex -0.700799 1 0.256659
    vertex -0.866025 1 0.5
  endloop
endfacet
facet normal 0 -1 0
  outer loop
    vertex 5.45154e-15 1 -1
    vertex -0.104628 1 -0.73304
    vertex -0.34202 1 -0.939693
  endloop
endfacet
facet normal 0 -1 0
  outer loop
    vertex -2.44929e-16 1 1
    vertex -0.34202 1 0.939693
    vertex -0.128437 1 0.726566
  endloop
endfacet
facet normal 0 -1 0
  outer loop
    vertex -0.642788 1 -0.766044
    vertex -0.585511 1 -0.446373
    vertex -0.866025 1 -0.5
  endloop
endfacet
facet normal -0 -1 0
  outer loop
    vertex -0.46004 1 0.168416
    vertex -0.700799 1 0.256659
    vertex -0.671185 1 -0.108383
  endloop
endfacet
facet normal 0 -1 0
  outer loop
    vertex -0.0518016 1 -0.50134
    vertex -0.329596 1 -0.566146
    vertex -0.104628 1 -0.73304
  endloop
endfacet
facet normal 0 -1 0
  outer loop
    vertex -0.411314 1 -0.2909
    vertex -0.169109 1 -0.28563
    vertex -0.324515 1 -0.0526994
  endloop
endfacet
facet normal 0 -1 -0
  outer loop
    vertex -0.0850345 1 0.468013
    vertex -0.199498 1 0.226779
    vertex 0.100474 1 0.258427
  endloop
endfacet
facet normal 0 -1 0
  outer loop
    vertex -0.0359418 1 -0.026479
    vertex 0.100474 1 0.258427
    vertex -0.199498 1 0.226779
  endloop
endfacet
facet normal 0 -1 0
  outer loop
    vertex -0.46004 1 0.168416
    vertex -0.324515 1 -0.0526994
    vertex -0.199498 1 0.226779
  endloop
endfacet
facet normal -0 -1 0
  outer loop
    vertex -0.0359418 1 -0.026479
    vertex -0.199498 1 0.226779
    vertex -0.324515 1 -0.0526994
  endloop
endfacet
facet normal 0 -1 0
  outer loop
    vertex -0.642788 1 -0.766044
    vertex -0.329596 1 -0.566146
    vertex -0.585511 1 -0.446373
  endloop
endfacet
facet normal -0 -1 0
  outer loop
    vertex 0.866025 1 -0.5
    vertex 0.683409 1 -0.299517
    vertex 0.561786 1 -0.505406
  endloop
endfacet
facet normal 0 -1 0
  outer loop
    vertex 0.866025 1 0.5
    vertex 0.569487 1 0.488489
    vertex 0.691787 1 0.287932
  endloop
endfacet
facet normal 0 -1 -0
  outer loop
    vertex -0.0359418 1 -0.026479
    vertex -0.169109 1 -0.28563
    vertex 0.10839 1 -0.289242
  endloop
endfacet
facet normal 0 -1 0
  outer loop
    vertex -0.0359418 1 -0.026479
    vertex -0.324515 1 -0.0526994
    vertex -0.169109 1 -0.28563
  endloop
endfacet
facet normal 0 -1 -0
  outer loop
    vertex -0.411314 1 -0.2909
    vertex -0.585511 1 -0.446373
    vertex -0.329596 1 -0.566146
  endloop
endfacet
facet normal 0 -1 0
  outer loop
    vertex 0.388931 1 -0.326352
    vertex 0.561786 1 -0.505406
    vertex 0.683409 1 -0.299517
  endloop
endfacet
facet normal 0 -1 0
  outer loop
    vertex 0.41521 1 0.271218
    vertex 0.691787 1 0.287932
    vertex 0.569487 1 0.488489
  endloop
endfacet
facet normal 0 -1 0
  outer loop
    vertex -0.0518016 1 -0.50134
    vertex 0.10839 1 -0.289242
    vertex -0.169109 1 -0.28563
  endloop
endfacet
facet normal 0 1 0
  outer loop
    vertex 0.866025 -1 -0.5
    vertex 0.642788 -1 -0.766044
    vertex 0.426714 -1 -0.508558
  endloop
endfacet
facet normal 0 1 -0
  outer loop
    vertex -0.866025 -1 -0.5
    vertex -0.984808 -1 -0.173648
    vertex -0.655819 -1 -0.11563
  endloop
endfacet
facet normal 0 1 0
  outer loop
    vertex 0.866025 -1 0.5
    vertex 0.984808 -1 0.173648
    vertex 0.655919 -1 0.115544
  endloop
endfacet
facet normal 0 1 0
  outer loop
    vertex 0.984808 -1 0.173648
    vertex 0.984808 -1 -0.173648
    vertex 0.655919 -1 0.115544
  endloop
endfacet
facet normal 0 1 0
  outer loop
    vertex 0.34202 -1 0.939693
    vertex 0.642788 -1 0.766044
    vertex 0.228233 -1 0.627064
  endloop
endfacet
facet normal 0 1 -0
  outer loop
    vertex -0.984808 -1 -0.173648
    vertex -0.984808 -1 0.173648
    vertex -0.655819 -1 -0.11563
  endloop
endfacet
facet normal -0 1 0
  outer loop
    vertex -0.642788 -1 0.766044
    vertex -0.34202 -1 0.939693
    vertex -0.42814 -1 0.510138
  endloop
endfacet
facet normal 0 1 0
  outer loop
    vertex 0.642788 -1 -0.766044
    vertex 0.34202 -1 -0.939693
    vertex 0.426714 -1 -0.508558
  endloop
endfacet
facet normal 0 1 0
  outer loop
    vertex -0.866025 -1 0.5
    vertex -0.642788 -1 0.766044
    vertex -0.42814 -1 0.510138
  endloop
endfacet
facet normal 0 1 0
  outer loop
    vertex -2.44929e-16 -1 1
    vertex 0.34202 -1 0.939693
    vertex 0.228233 -1 0.627064
  endloop
endfacet
facet normal 0 1 0
  outer loop
    vertex 5.45154e-15 -1 -1
    vertex -0.34202 -1 -0.939693
    vertex -0.227036 -1 -0.623903
  endloop
endfacet
facet normal 0 1 -0
  outer loop
    vertex -0.34202 -1 -0.939693
    vertex -0.642788 -1 -0.766044
    vertex -0.227036 -1 -0.623903
  endloop
endfacet
facet normal 0 1 0
  outer loop
    vertex 0.866025 -1 -0.5
    vertex 0.426714 -1 -0.508558
    vertex 0.698999 -1 -0.25447
  endloop
endfacet
facet normal 0 1 0
  outer loop
    vertex 0.984808 -1 -0.173648
    vertex 0.698999 -1 -0.25447
    vertex 0.655919 -1 0.115544
  endloop
endfacet
facet normal 0 1 0
  outer loop
    vertex -0.866025 -1 -0.5
    vertex -0.655819 -1 -0.11563
    vertex -0.569848 -1 -0.478111
  endloop
endfacet
facet normal 0 1 0
  outer loop
    vertex 0.642788 -1 0.766044
    vertex 0.569785 -1 0.478124
    vertex 0.228233 -1 0.627064
  endloop
endfacet
facet normal 0 1 0
  outer loop
    vertex -0.34202 -1 0.939693
    vertex -0.129149 -1 0.732515
    vertex -0.42814 -1 0.510138
  endloop
endfacet
facet normal 0 1 0
  outer loop
    vertex 0.866025 -1 0.5
    vertex 0.655919 -1 0.115544
    vertex 0.569785 -1 0.478124
  endloop
endfacet
facet normal 0 1 -0
  outer loop
    vertex 5.45154e-15 -1 -1
    vertex -0.227036 -1 -0.623903
    vertex 0.129224 -1 -0.732568
  endloop
endfacet
facet normal -0 1 0
  outer loop
    vertex -0.984808 -1 0.173648
    vertex -0.699006 -1 0.254378
    vertex -0.655819 -1 -0.11563
  endloop
endfacet
facet normal 0 1 0
  outer loop
    vertex -2.44929e-16 -1 1
    vertex 0.228233 -1 0.627064
    vertex -0.129149 -1 0.732515
  endloop
endfacet
facet normal 0 1 0
  outer loop
    vertex -0.642788 -1 -0.766044
    vertex -0.569848 -1 -0.478111
    vertex -0.227036 -1 -0.623903
  endloop
endfacet
facet normal -0 1 0
  outer loop
    vertex -0.866025 -1 0.5
    vertex -0.42814 -1 0.510138
    vertex -0.699006 -1 0.254378
  endloop
endfacet
facet normal 0 1 -0
  outer loop
    vertex 0.34202 -1 -0.939693
    vertex 0.129224 -1 -0.732568
    vertex 0.426714 -1 -0.508558
  endloop
endfacet
facet normal 0 1 0
  outer loop
    vertex 0.454099 -1 -0.165046
    vertex 0.698999 -1 -0.25447
    vertex 0.426714 -1 -0.508558
  endloop
endfacet
facet normal 0 1 0
  outer loop
    vertex -0.45452 -1 0.165389
    vertex -0.655819 -1 -0.11563
    vertex -0.699006 -1 0.254378
  endloop
endfacet
facet normal 0 1 -0
  outer loop
    vertex -0.45452 -1 0.165389
    vertex -0.699006 -1 0.254378
    vertex -0.42814 -1 0.510138
  endloop
endfacet
facet normal 0 1 0
  outer loop
    vertex 0.0838048 -1 -0.475366
    vertex 0.129224 -1 -0.732568
    vertex -0.227036 -1 -0.623903
  endloop
endfacet
facet normal 0 1 0
  outer loop
    vertex -0.370186 -1 -0.310403
    vertex -0.569848 -1 -0.478111
    vertex -0.655819 -1 -0.11563
  endloop
endfacet
facet normal -0 1 0
  outer loop
    vertex 0.454099 -1 -0.165046
    vertex 0.655919 -1 0.115544
    vertex 0.698999 -1 -0.25447
  endloop
endfacet
facet normal 0 1 0
  outer loop
    vertex -0.0843261 -1 0.476029
    vertex -0.42814 -1 0.510138
    vertex -0.129149 -1 0.732515
  endloop
endfacet
facet normal 0 1 -0
  outer loop
    vertex 0.370345 -1 0.310373
    vertex 0.228233 -1 0.627064
    vertex 0.569785 -1 0.478124
  endloop
endfacet
facet normal 0 1 0
  outer loop
    vertex -0.370186 -1 -0.310403
    vertex -0.227036 -1 -0.623903
    vertex -0.569848 -1 -0.478111
  endloop
endfacet
facet normal 0 1 -0
  outer loop
    vertex -0.0843261 -1 0.476029
    vertex -0.129149 -1 0.732515
    vertex 0.228233 -1 0.627064
  endloop
endfacet
facet normal -0 1 0
  outer loop
    vertex 0.370345 -1 0.310373
    vertex 0.569785 -1 0.478124
    vertex 0.655919 -1 0.115544
  endloop
endfacet
facet normal 0 1 0
  outer loop
    vertex 0.0838048 -1 -0.475366
    vertex 0.426714 -1 -0.508558
    vertex 0.129224 -1 -0.732568
  endloop
endfacet
facet normal 0 1 0
  outer loop
    vertex 0.454099 -1 -0.165046
    vertex 0.426714 -1 -0.508558
    vertex 0.192935 -1 -0.229835
  endloop
endfacet
facet normal 0 1 0
  outer loop
    vertex 0.370345 -1 0.310373
    vertex 0.102397 -1 0.281674
    vertex 0.228233 -1 0.627064
  endloop
endfacet
facet normal -0 1 0
  outer loop
    vertex -0.0843261 -1 0.476029
    vertex 0.228233 -1 0.627064
    vertex 0.102397 -1 0.281674
  endloop
endfacet
facet normal 0 1 0
  outer loop
    vertex -0.0843261 -1 0.476029
    vertex -0.193479 -1 0.23016
    vertex -0.42814 -1 0.510138
  endloop
endfacet
facet normal -0 1 0
  outer loop
    vertex 0.0838048 -1 -0.475366
    vertex 0.192935 -1 -0.229835
    vertex 0.426714 -1 -0.508558
  endloop
endfacet
facet normal 0 1 0
  outer loop
    vertex -0.45452 -1 0.165389
    vertex -0.42814 -1 0.510138
    vertex -0.193479 -1 0.23016
  endloop
endfacet
facet normal 0 1 -0
  outer loop
    vertex 0.454099 -1 -0.165046
    vertex 0.295928 -1 0.0520908
    vertex 0.655919 -1 0.115544
  endloop
endfacet
facet normal 0 1 0
  outer loop
    vertex 0.370345 -1 0.310373
    vertex 0.655919 -1 0.115544
    vertex 0.295928 -1 0.0520908
  endloop
endfacet
facet normal 0 1 0
  outer loop
    vertex 0.0838048 -1 -0.475366
    vertex -0.227036 -1 -0.623903
    vertex -0.102812 -1 -0.281967
  endloop
endfacet
facet normal -0 1 0
  outer loop
    vertex -0.370186 -1 -0.310403
    vertex -0.102812 -1 -0.281967
    vertex -0.227036 -1 -0.623903
  endloop
endfacet
facet normal 0 1 0
  outer loop
    vertex -0.45452 -1 0.165389
    vertex -0.296157 -1 -0.0521027
    vertex -0.655819 -1 -0.11563
  endloop
endfacet
facet normal 0 1 -0
  outer loop
    vertex -0.370186 -1 -0.310403
    vertex -0.655819 -1 -0.11563
    vertex -0.296157 -1 -0.0521027
  endloop
endfacet
facet normal 0 1 0
  outer loop
    vertex -0.984808 -1 0.173648
    vertex -0.866025 -1 0.5
    vertex -0.699006 -1 0.254378
  endloop
endfacet
facet normal 0 1 0
  outer loop
    vertex 0.34202 -1 -0.939693
    vertex 5.45154e-15 -1 -1
    vertex 0.129224 -1 -0.732568
  endloop
endfacet
facet normal 0 1 0
  outer loop
    vertex 0.984808 -1 -0.173648
    vertex 0.866025 -1 -0.5
    vertex 0.698999 -1 -0.25447
  endloop
endfacet
facet normal 0 1 0
  outer loop
    vertex -2.44929e-16 -1 1
    vertex -0.129149 -1 0.732515
    vertex -0.34202 -1 0.939693
  endloop
endfacet
facet normal 0 1 0
  outer loop
    vertex 0.642788 -1 0.766044
    vertex 0.866025 -1 0.5
    vertex 0.569785 -1 0.478124
  endloop
endfacet
facet normal 0 1 -0
  outer loop
    vertex -0.642788 -1 -0.766044
    vertex -0.866025 -1 -0.5
    vertex -0.569848 -1 -0.478111
  endloop
endfacet
facet normal -0 1 0
  outer loop
    vertex -0.000126189 -1 -0.000165658
    vertex 0.295928 -1 0.0520908
    vertex 0.192935 -1 -0.229835
  endloop
endfacet
facet normal 0 1 0
  outer loop
    vertex -0.000126189 -1 -0.000165658
    vertex 0.102397 -1 0.281674
    vertex 0.295928 -1 0.0520908
  endloop
endfacet
facet normal 0 1 0
  outer loop
    vertex -0.000126189 -1 -0.000165658
    vertex -0.296157 -1 -0.0521027
    vertex -0.193479 -1 0.23016
  endloop
endfacet
facet normal 0 1 0
  outer loop
    vertex -0.000126189 -1 -0.000165658
    vertex -0.102812 -1 -0.281967
    vertex -0.296157 -1 -0.0521027
  endloop
endfacet
facet normal -0 1 0
  outer loop
    vertex -0.45452 -1 0.165389
    vertex -0.193479 -1 0.23016
    vertex -0.296157 -1 -0.0521027
  endloop
endfacet
facet normal 0 1 0
  outer loop
    vertex 0.454099 -1 -0.165046
    vertex 0.192935 -1 -0.229835
    vertex 0.295928 -1 0.0520908
  endloop
endfacet
facet normal 0 1 0
  outer loop
    vertex -0.370186 -1 -0.310403
    vertex -0.296157 -1 -0.0521027
    vertex -0.102812 -1 -0.281967
  endloop
endfacet
facet normal 0 1 -0
  outer loop
    vertex -0.000126189 -1 -0.000165658
    vertex -0.193479 -1 0.23016
    vertex 0.102397 -1 0.281674
  endloop
endfacet
facet normal 0 1 0
  outer loop
    vertex -0.0843261 -1 0.476029
    vertex 0.102397 -1 0.281674
    vertex -0.193479 -1 0.23016
  endloop
endfacet
facet normal 0 1 0
  outer loop
    vertex -0.000126189 -1 -0.000165658
    vertex 0.192935 -1 -0.229835
    vertex -0.102812 -1 -0.281967
  endloop
endfacet
facet normal 0 1 0
  outer loop
    vertex 0.370345 -1 0.310373
    vertex 0.295928 -1 0.0520908
    vertex 0.102397 -1 0.281674
  endloop
endfacet
facet normal 0 1 -0
  outer loop
    vertex 0.0838048 -1 -0.475366
    vertex -0.102812 -1 -0.281967
    vertex 0.192935 -1 -0.229835
  endloop
endfacet
endsolid Created by Gmsh
